<mxfile host="65bd71144e">
    <diagram id="HIP3nbAZw_EuaXWnEj3U" name="Page-1">
        <mxGraphModel dx="702" dy="477" grid="1" gridSize="10" guides="1" tooltips="1" connect="1" arrows="1" fold="1" page="1" pageScale="1" pageWidth="850" pageHeight="1100" math="0" shadow="0">
            <root>
                <mxCell id="0"/>
                <mxCell id="1" parent="0"/>
                <mxCell id="7" value="http://ics2o.mths.ca" style="swimlane;whiteSpace=wrap;html=1;" parent="1" vertex="1">
                    <mxGeometry x="40" y="40" width="760" height="480" as="geometry"/>
                </mxCell>
                <mxCell id="8" value="&lt;font style=&quot;font-size: 46px;&quot;&gt;Cookie Clicker&lt;/font&gt;" style="text;html=1;align=center;verticalAlign=middle;resizable=0;points=[];autosize=1;strokeColor=none;fillColor=none;fontSize=46;" vertex="1" parent="7">
                    <mxGeometry x="220" y="60" width="320" height="70" as="geometry"/>
                </mxCell>
                <mxCell id="9" value="" style="shape=image;verticalLabelPosition=bottom;labelBackgroundColor=default;verticalAlign=top;aspect=fixed;imageAspect=0;image=data:image/png,iVBORw0KGgoAAAANSUhEUgAAAOEAAADhCAYAAAA+s9J6AAAAAXNSR0IArs4c6QAAAARnQU1BAACxjwv8YQUAAAAJcEhZcwAADsMAAA7DAcdvqGQAAIXwSURBVHhe7b0FwGVluT2+Tnd9XdM9dHejtIhgFyoqP+Na17jXbv1bmKiIiJiIklJSinTPDDBM19d1uuO/1rvPmRnwesOrfne+2Qve2efbZ59317Pe9TxvOhqNBmzYsDFzcDa3NmzYmCHYJLRhY4Zhk9CGjRmGTUIbNmYYNglt2Jhh2CS0YWOGYZPQho0Zhk1CGzZmGDYJbdiYYdgktGFjhmGT0IaNGYZNQhs2Zhg2CW3YmGHYJLRhY4Zhk9CGjRmGTUIbNmYYNglt2Jhh2CS0YWOGYZPQho0Zhk1CGzZmGDYJbdiYYdgktGFjhmGT0IaNGYZNQhs2Zhg2CW3YmGHYJLRhY4Zhk9CGjRmGTUIbNmYYNglt2Jhh2CS0YWOGYZPQho0Zhk1CGzZmGDYJbdiYYdgktGFjhmGT0IaNGYZNQhs2Zhg2CW3YmGHYJLRhY4Zhk9CGjRmGTUIbNmYYNglt2Jhh2CS0YWOGYZPQho0Zhk1CGzZmGDYJbdiYYdgktGFjhmGT0IaNGYaj0Wg0P9qYRQjX67UVlUplCd9vw+fzPeFwONdzf8362sb/Jdgk/L8FeSaxWrXan0mnDtq8Ye1x99558xGP3H/PgmdWrwpu25p17c4in9vZqNStz4163aE36dDnF2yVqYv/lHms/va4nI39D+guv/jMV2x6wzs+9L3Ont6bHQ7HIL8qMdn4J8Mm4czBS7XaZ+vGtS/6/W9/efJvfnnjAdvWrevo7yq6ezpiaI8rRUg0FyLhINoTbYhznz8YMD+myqFeLiAR9sPpqJFYLjjdbniZtNXfDYcDbqcTNb5j/e3yeFCvVjE6Po6tmzdj+9AE1m4aw72PTKPsdtc/9Mn3PX3h+z72rUAo+jOeomhOZOMfDpuE/1zEtz635oPX/ew7Z1//y58vnxjNe1YsaDgOXLkc+++3D9pIOmejjqDXhVgkjJDfg0atglKpiEKhiHK5DCoWfIEAQqGQ+d7npDbWSch6HVUSrFarma3+1rvV3yJsqVQyn90kKN1TBJiH2xvAyEQWNXcAa9ZvxW9vvhOPrwWWHTKv+MHPXHLfcaee8yGny/V489pt/INgk/AfDLqJ835z6SVXffvTnz58ajLrPXilGyced7hjn5VL0BbzI+5zwoUySoU88rksCVUlsZyoVkrmb4/TAX/Ai2gkjlA0Ak8gRN/SxZzpWJKwZJg5j0jXIl7rs+D3+w0pRcQWQUXIfD6PEpXUH/ShWG0gEOlArGsuRtJV3HbfY7j1nkewblulcd6rzy9+4suXfjbW1v5VZmedzMbfFTYJ/wHgM+0a3r7lvHOOPOYrA9HpyMpFc3HEQfth6cJ+RHweVApZEixNActiTlcYY2M7UC7StYxF4PW4UST53C4H3c843UgHOSdX08tgzs0Az8NEEjZIQoeTcZ/cTiecJC7/sZJIqi1Vk/KJUi5niOf1ekm6oHFJx+mSjk+MgBxElG5usVzDxHQe7mAcbd3zMJVr4JkNw7jy6huQLjqx/ICj8ImvXnrDnKUr3slb3GHdqY2/B2wS/h1RKhaO/eLHPv7pH3/zmyeefmLE+bqXn8OYzYuQywk3lamUyaGQzKFBgw/5Qwjzu2x+GG3tIfLLTXXKMQb0IN6eIMlqyExNITIwAMoXE5Wt1jBxnsNFInrIHhHTR2WEc6f6Se1aiqgkFzZI4smF5Q4UCwUUi0XzndvZwOTYdmTSU6iXKow9wySlH3XV/jR4Dm8Ysc55uP3eR/GDq27DmmHgjJecUvvKZb/4Wbyr6908KqP7tvG/g03CvwPy2exx737Vq35QnHxs2dmnH+U87JAlCPkqGB58DkGPAzUafqNQhavmQtBNww61MbXDEXDT4KdRqedICBdcfpKqzjiuVDDqR/YA2SzkWNbqDqN4ddV18ljzmaniIBkdVEoqn36jmM8oJ/826si/a1RBEU8E1Xcmb6JBoovsJSpzOZNCJZfiNsnji3SJ3fCyoKB+whlsh7d9LtYP5/C9n12HWx8axCtfd0Hm6z+88t/8geB3TWY2/mbYJPzb4ZieHH/lWcuWXnHYypj/tNOOw7Kl/STVFFIpemu1NN2/Kl3OIgJUrEggiog/zs9ROpBUpToJCKqWq4yGs2KaDrgTFCe9Ff1vwE9mW3PoeLqfVMKGlM80PPzXUEzYgip1WtBnubKlKklKcjoredQLaVCq0ShJrQtmf7ZQQdnpgyPUAU+8BzlHBE+s24ab7vwz/vTwMD7wkQ+U3/up/+9sh9P5h2bWNv6HsEn4t6DRaP/oe9913QM3fO/Yj178avRGfYjFAyRIka7dCAr5aXqKdDmpdAGqm5cuZsAboqsZoOLxuJqD5HTSw6TxUykbjjqp9pcEbEFErDWVz8SAIiH5pOP1O77E5pF/CY/H8xfka6Hh9KJSC9DLlbtchqOah6tahKNeMkl+aalSRp7uc4HXXHX7UOd9ZMvAON3qsXQDH//SteiZ24vv/PjnD+1/7EkXM9snrdxt/Hdhk/B/iHw2fcqZBx989VEHB9pedvqx6PGk4ChNm4oPJVFGFSCKw/wkoCpXnHL/TIUJv6a61CpUF8Zq9WoNfk/QkM6hmk5CpJIiPh8in1TQSTJaSqh9gnX8X4dxSZv4SyV0w+nv5F+8sDrjzhpTvYIGyVdvVC13VSQ3WdRRqfAeqZC69hqPLTaimKz24+qb7sPV1z2Al51/Uu1T37nyl5GeOSJjTr+y8V/DJuH/AOufXvWu15941Nc/828v8xxz5EFY/ehdSDgn4aikaLQueD0BRMLtCIdi8PpCjL08QIhxnWGZyCJDL6JKxSnTTa1X6gg6Q/zaSTIJPMaQkWmnP9okjmHCLjK23FTta6nif7R1MMZs/d1wOnbud+n3PK8zGOfWzaQDeHncX+G2yuvQqVVpEwp4EfYzlnSQfIUMCjnFjVmUGhGkG3NQ83ZhaGwSn//y9zCRdTa++5MfZo+54M0n8+yPNi/Sxn8Cm4T/PTjuve3mL9314w9/6LQTDmVsV0M5N0nXLYOov0zjrMBDV9PviyAUaocnmGAwFrFqL7MUBIcUhQRk7MeAi+5fnkpSUp0ItSgAZ/0/IKEYIWizU8GaCmhIqK9cJlYUKcVZ02rxgq3UVludYfetvlfHABdVzyEXlwVGw+ND1eUjJ+kyu6mOPK/aFxu8ZmeVqSZ3tQB3o8h75v04Ali/JUsXNUFi++GJtOGnv7kBP7nuWZz3smPxxcuvvSQY7/gwL5UOrI2/BpuE/zV8P/3OV35x/6+/8bJ3vfWViHtJntIkctPDCHga8HgdVvubL8z4LwqXN0yZ8dHCSUCafDmbMRxyqGcLyWol2qQhJglR47EkgauuuLAVD9LADUTG3bGLgPpsqaG2Fom1/4Xbhpormn/rQlr7nYbYqt6R6vKz0406iVhnzFp1kdhOfXZZjf1l3jOV20FX1d3gtTNurNEtrZTKCM1bjNzWQewYSyJZBLrmLcfdD63CNy+7DQNLevC9q65dN2/lkWfwZJuYbPwHsEn4n8P/gbe97a6OxuCRrzj9aEcpuRW+2hSSIxuxYlGv6XXS1r2Yxuo1TQOm7U5uo7qJ8Ts1CwS8dEmNK0rKkGEO+oPa0jPk79yo1F1UEbqFVCVDK74OJ0morRXv7Xo/Fum41TmMC6vKHJLZqOdfQev9GtLtthX00c/r1gfKo3KpUJXrzLtG95pXwVuhWlLRRUafL2CaN6SOhUIB9cI0KpPb0NnfBUQ6MLZtDNum8mifsxzbpku47OfX4sY7t+IXv/1R+qyXveVgZr+RycYLYJPwr8N5UF9f8jVnHxA5/cRD4KlMIjO+BR0hJxYMdKGWTcE1Zx6QKqFIcZBhqhbUx/jJ9GgpFVBictOtazRHENVp6A4pmYMRGVPd4UWRiiNySQVdjaqVoCaLmiGmw1CBHDE5iCtWDGjiOdJG7uQuEmq7+2fCkE5urCAlVe0Qwd/zZCjRvaw5eR5dE1STal0fHNZnjzfInFQhRNe3SVCppvb73OrFlkJpaCM8/hAm0nlMpot0a0PI1X2I9yzE1Tf+Ad/78QM4/3UvanzriltfxVLoausCbLTg+tSnPtX8aKMFFkx9Z87vHbzopSsiZ524ArmJZ1DLDWJObwx9PZ2mecGBMAWOxslYyeEqw+tyMk6iMat3S5msJDncsv1amcfQWEnMqWQa4UQ3UrkahWM+3IFOTOZcWLdpDPMXLud5XYwtfep5g4DPy58yBhNvDBFFyKbLymy1Nf/yN06P3whejeduiDIeHqFz65gA1bnK6/EGkCdJ3HSVHcE43UsWDcrCy+slGR2MLZ2GiEq8PxUYzLRWqzDfIsrFPMqlIjx0VUOhMNw8vlRSYeHCdInX5fUZF9fvqaOanUSCcXNleghHHLAM+y5J4Jvf+oMjl3zuguNedG7F4XTdq6uzYcFWwhegXqstOnXZsoc/8tpD2lYsjKOY20ZilBCJeJGIxuBkzFQp8MCqH24PlcHFPxjfOShPzrpqGY31W+okN7QtBkxPUb18VAg/ptIVdPYtwuo16/EvH7wMFfJlLM9YKgC86+IX4YKzX4RyfgKuahY+DwmikymG3AkrBmz1GS0WqrwmFwLqBBoOojw5alpD6vWqqYENx9qYRQmeeBuviQpXbjD/PAr5CiKJIOmd5LVJdal8dY91DxaDiToKxRzjXBfvldfv8pJ0Xt6iCMfnQNKVmOLzepHZshbF1DjagiyMvE7seO4ZVCjS4UQ/xrMOTDfieOU7r8ABR+6L6/705Hc8Hpe6vdkgbBI+H7Fj+/q2v+GMhZELzjwGyfENaNSSaG/zIx6PUDHIGPJCTQuoumnopINPtZPim6r/abwmyRVUajB2yiEwZw5G129Fe+88uOetwM1XXYObbroHi/c5hC7bHGPgjz50L55+chvOftFCvO/D70KSRh2n69uo5Wn4TZdTEmgIqJzlVtIldfmpSEXTHujxejE2Mc4CI8LYzYFUJo04C45kMgkPz6HhS0brGNeprc/nl4vJEkAKbgoQfqvmCuardkt1IqipEZ+ncqq2lO52g8fV6LZ63GHAF8ZUvsjYOIvejqgpOJJj2xBhnOmKhZDcugPDE2m4wp1wRedh83gZH/r8D7Hi0BNw1XW3/8Tp9b5Jd7S3w3ZHdyGy0ueZ/teLjvafddKhyE1vQT45TPezDUG6hi43GUDSqVHbhEymlpOMpPEb9635n1raaMHNVIcnRIlTI7jct6oThakcrrzqt3QFA1i+z4FI5+tIpjI4/vjjEI/UcevNazDQ5cLyJQuRSU/D6xExlJcu0fxjYJ1L2bIQqNIFrNWpfHUk2nvh6eyl0Xcg5A0bwgTCGgxM95m+rQjj9/tM5+0iP8u9VDulUwTUfdR1PuWspgu6toxxnQ26nQ39TWeX11KlxFUqVVSqNSpwApFwHPlshgpbQCwaNQVCKZWEPxBEMBTB6NgEf+nGosWLcNThh+HSb/8CW9Y9dOBpZ527P9y+3/FkKrH2WthKSNRq1eUnzJ378JvPXxo57qAFcFemGANOweduYGBggISjwUsJ6H4ymKIS5mhUdANJLNSD3KdmBj1M/at/mkoodzQYQHKSitTRTxL6cdcfn8TlV/wBnd1dGJsuwBWMoEhVmhidwKJ5YRSSWSxdGMYXPvUhZCYHEfSrBtSqqDH5Nc8gteIOxa+o0MV0uqlyvhCciV6sW/00hsam4PUFqHhFdHW2oa+7DfHuGFLbNjB+rZJ8yldliMfKi+Qz25Y7rQLGnJNbN8+r4JSbcpXubJVXU/Og0vCzkOlFtI1x7tQQ4m0kPV1SV8iNwtggAh1xVFJpjE4mGQfT8WWB0zN3CT/X8cq3fRcXvfU0fPgHv70NjtBZ1sn2Tuz1SlirVvc5Zu7chy48d3Hk9OP3RyWzDdXsCDriQfhJPKeTcZArQLczThKScFTDUrlEe6wat85BAjqMigi7E7BKd66B5NQEYm3tyBUqVKM2PLd+EPfdvxFT0zm0d/UybqJB8/Ce7jhi4TDGx5IYGyrjzDMOJ8lJFrVlNNHUPhYKOg+33Dh8PhYKFSq1SBjG6qfW4rIrfoWbbn0O20a2UyFdWP30s9i+bRuWzBsARZ0qSFVzlHg8CajaGUM8EVBnaJ1P98DvaoxHqZyqWKqpK42Ulernj7Qj4Oe2bQ4eefAJurpBREKMmRNxZIZHEIrF6c6P8zwuKn2K7rAL0ZDfxLhdiRCO3r8dn/3qbQh6U4sPOvbUZXzI11jn3fuwV5OQKtK5LBxe//l/OSNw+gkHoJzZjkZxBGHaSi6dRO+KfVHPOxgKJXgsFatgKYHLQ1J6Xajys7tBksqILRkkmorF1HDWabBBOP0BEs2FSt2DRx99Flt3DKG/bx7S2TJCjNnSdN00eFfu54K57cwii/7eGJaeeDxqJLHTuIYEz7GLiE2SUAkVj9bp7tUcfvz0F9dh3eYMcuSOJ+ChOnVh0+bNSPF+DjvsAMRjPjg9VMEab6ZaZB5NArbIp78NF5U/t3RX4SJzScACD/f52+AIdyE9UcBTazbhs5+9BLf+4QHceeefcPc9f8TxRx6DcDROcWMh5qXb6/UgFA5icnwM3Z0J7NiyEQ7GucvmdiMRy+Pz37wVBx6ybJ95S/d7iCfcYK5hL4Oe/l4JErCrx+0e/dS7z3UfsHSARrUNhcwIXbUayqUs5i+Yi0a6AG+km3FXB5IZNwZHqnSl/PAF++Fl0ggEM/h1J2i4gggoI+bfmXyGajhFd9Ft1GBgoA/jozAN/fFoBJnktJnIKUKydiQSjK2yKNLY29raMLlqlcnO1IY2OfJCVDJZipTllirPRx4ZZVwYwNz5Ut8a/nTfYxgd16h6P91TvxnU2yjl+UsWFmrKMHLKa1WPHhYaFvmUZBpuKqnEsM7YlR5A3Q8HC6RyuoHb73gEn//ir1ig5PGiF5+F405+MXrpan70U1/CdI4/8sfoflZRpNK7ed5lK1ZgaHA72uMBVLITfN7bcf5ZJ2PJXOALn/yIo5EdvJp3uo+5qb0Me6US0mDbX3zoIU994j0XRPeZ30ajHEejPEU3rQifp4ZYLELCRKl2CRpqF351zR342KevopG6cdXPfoNNW4dx9CmnwUV1cFTLFAypn8mZ26YiiogMugIdnYZYAX8ElYqD7m0Aq1c/hu1bc/D7HYjGQiQ+3dbJYdSreRRVuREBzjj9BHT3dpm2QjXKS/msdkIr7xZcapbIF+Ht6EOpUMW2wU148OEUVZpuX3en+U06XcFrX3UG9lu5CNVCkvdZ5m/SqKj5Qe6sKYpFdCUSWklndTI5PIxZHfCHOhAeWIbVT2zApT/8Ff58/2qEEm2okKjbhkexdv0mjExMYvtQlo56AQcfdABS2QyCkRDF1IkKia/KnXqVbrmX6ko3d2wqhRPPPA8/+untKBWnfEefcPJRcPmv4MXwge492BtJ6H/j6UevOe/U/QaWzyMBc6Nw1ZM0uTy8JKDfp/6SIXi8MThIwgcefBafueR2LF/aS6P0I5pox913P0vVCmLRgnlwVnI0dNWUKmspC6mozySj2aoBnXGRk8aczZUwZ+FSzKUrqq5pa1ZvxsRIEqlUmopIAy3V0N4GHLj/fBx39GEkSZrZ1UxsKFrsImHL9SU0Wp55kyXwByKma1mJhcrYVB4T41TVfAVnnXkwXn7uaRS6AibGtjEOY9kS8sITj5l4sm6IZxFQje/W3zwbr1utMaFYB71RNx59eBW+8c0rsXlbhpYTNM/IF4mYWlcP40av382rLGL9xm04+5wXoaMzznvmsSSfmkw8Hn5fpzqaUf4VPt8QY9ooOrti+O53rsVZpx3d09a/5D6WOHtV97a9rnb0/KOO3Hb8QYE5553xYpSzY0iPbYTfVaRhMn6jdxnyeahaYSoE2eBM4A/3PI1PfeEmrFzRi4nJFEKhAMbHJ3HBeSfhtS9/MfzVHSRJusk8wpBP7lyVpK2jSgN0Mqby+CL8XZYkW4B0hmRqhJHJFjE+OYnp1BRcPLYtEUIsGkAo4EL7ggEgNYFKIUXCKiZUMweJ2Oyi1jwbSSj1daNcccIbonIHO7BjaALrNmxHkb5kW1scK5YuMA3/5dwEolEXCVRGfYrKq+5xvF8NGLbcajdFVt3orLbCOglZotoHwwls2TaFj/z7ZQhHvHTHpbARjE1Mk4tuEzLquZQrGZKthvufmMCfbvky4nEvirkpPooin3Edfp6inM9iamwYRapklYWaM0QFd8Xxrg9/Db0LF+Bndz/GTBJRc297CfYqJbzqu9/5RVfj6WMuOPMEJIfWYXpkA8KBGnwkYNDnRsgfoKsUpPsUosvqI4E8dElDGB3dhOc2jLFk53fOKmqVMhbO6cX+KxYyrNIoCfVoIS0MM0wjovU3k8fvRS6TQ51kUUWFh/FRPp3muXxI9CTQ29eGzpgPSxf1oXtBL2IB/q6aQzE5gkJumrGci9lRCY36NZWQaG15gAlFc3RJs9mcaUVJtMWwYH4/luyzBAPtUSo7MLqNhY27Dh9Jnh8eNlMsBmJx1esQqmklAZsdAFp5S3urdB8DwQhcHh9d8fvh89dYiDCuJFHLChj5PHx+JwosLIYHJ6nEJfh4ra95zWkoZKcRouyq25umcHS7XPCwpPMyL9UKF0sVVEtleKikxxx1OL526R1Y1B/2LTv4mEHGpHvNfKd7DQnXrnrs/T/73Ovf/76LX+1I7liLanYUAVcBiYTfTKIbJCmCnjANhRZL8pkuoFWqU2c7YnQ988VhjIykEPDQaGjo57/kZMxfNgcojFkkNBUZUpTmVknunYjHj6YfaZ3aonlEFWtV8pga3gp3LcuYsAwnlSo/OYg0FSoW8ZneLAqdHBryZOLBJglFRkNIuY4E/cVGjSrD2NDv9SCfZzxYzsHZKKGQGkXWDLlS3WkZ4aCkqEx1LSCsbmxOD1VKKuvm8VaDvZOK7lSNq/LmeUMUpeGhHajwgThdSax5OoluFkYhuaFqQvHW0NUZNXFmNlVArdRg7BnEkYfuCx9Jr0EamiHcwXtXhwKX6fzNQo7qXePzzVPtfXRV585fyNh1B771vd/iwgtfcZI32vUt3Z0uY7Zjr3BHi4X80ecfHLv3a598v9OVH0LYmUMpOWwUItaZgNPtgQeaTt6q7dTAhEqdJTWfTYUG3zF/rontHn/sSYT9UfR39CDU1oPy+A54nSmeQbZCFaGaWN3JCEMUdaim8bqZoRhVKqFcqFIJgmBwaRG2UuRhJDHzZ1RoerSEoxH+yX2uhul9sjM7Hr9TAZtkr5VZWtSpS/yNZlZrZKjM6lhAQlZyVMao5dnVslm4qPQWlymd/FyZmKAyyfUkTH47cydJGqbCRlPoV0jM0Lyl2LZ6Ay67/GqsWlPQJHBmzHKZt86w0mS7z0rg2GMOwrnnnI5Y3M/4c4iFiXtnd7l8UdNiMB71qqAjCYsZ5Ee2IkXPoKRKsMgcvO5d38T5b3l14+PfuOIOOH2n6VLMBc1i7A0kdK9IJDI//upFfm91HJ78CHppl0FHjqKQRWIOYy/1fFFzQ93HJPfOScNjxOSku+RS3NRAOpdGf/8AFbQMty+GPF0vN1XNSyXgD5hEQm+ThDJoxYU1/k03Mc3SnsboY3xGH5dWy98UKygVi/C1cx/VSZ2qvb3dVFa6euUS8qUivFRnMz1hK97cqbTWZzMthqbQEDTwVl3LxKmaWMFzqDFe55IKMbZza1gS3cAyiesPxdTox/Np6lBdfytfwsS0/B2VLplNw83rCITbkUyX0L74AGxZswUbNw4zls2ac/b3dmH+vH56FSGjwi4qu7YeLwsJsk5jEV0eP5XQgUKZMTOVV3+H9ahS2zG4ZRMmKl5E+/fBPU9tw5cv/R2uuvb6xmEnn3Mu5fZG66JmL2a9O3rl9758zaLo+H5H7jMfEUcB+YntpqG6q68DgYFeGiyNTWpjjFsWTMvgR/XSkv2X63lEOyIoM77xcV8+PY1SahLhjnY4KwV6oSSV4Yh+rw8twsiQ63DGoiZG0qgGF12/KsnmpFFr7hmNNSynknDFYwytSHa6r1WqlyvIuCkUgks1luqvaqD8BeVvfZZDWi2W4AqFSbZmU4khdQG59BS8kTBqVFZnMGTaKdXo5whH4A6EqEJlNPhbtTHuuuYmJLuKa7n1R8PwBoOYGp8w19fI8dnNm4OF8+dg0dwerFy2AAO9CUQYy5bU1Y+FUokucTTog5u/15jISpkaz/tQPKzYUnOoalyiTz2OeK3RSAjpbAaBqB9d/b245bYHMDw67jj7vFcdxIf0veZVzVrMaiXMZ9MnvvX42N2f+pfXssSdQoLKkJoex6Lli+gOkgiMmyrltHUw3SMN59FWnZhbUFtfXcpg1KJJLNmoeWzq8Czi7kaQnUpFmN/pQG31rbW10Dpu930WdgqfsHt+O9EkIbOulipUZh/qGkkR9KOSTcET8pMIdD9ZkmjEvwggD9Tt5j27qUgkn/72hkleKqiVmf6x8m1ZhK5DiZxp7uD3Gg7F48zofgPV9DKzJuGse7b26zhNHK4ub5ouQ0OhjA+rLf92M3NnnoWIt4xcbis2D26GPzGAbLUL57/xMnzxG9/HK9779sOYw6yeMGpWk/DVLzpy22krpuecwzglt2MHPHzpspOeeQNwRuiKeRqMaTQzn2UwGshqkdFy9Qy0TzCs43F00azeMGouoBbJfW0a7z8brUuiH0gyMbake6uub5H2du7nFw11wiY8LFzIJFXIOJ10BUU+xqDZCSp6hLEkoXZBs91JxNY9aauT8Hzm3xasfbu+e6EdWXvMaHwqXouEDnUYZwwuYjr5rN01Ny99ggXJGCaTQxgcSbIQWYJfXbcVjz5XwLX3PFEJ9om5sxczYz3/BFSrlQM3P/3IwOGHH0pbtCrZNC+ouoPJNdPnGuMztYu1kga07k5AQzJtzedm4jEmSRFoRDMJlQ+VahmV8VHkpib5Nh2IJDpMw71699R4fQ0qXzqdZ/xJ95NkkNuXmRjlj8sIJ6ImjxYBd4fVMeAFiSWYNcr/hSP9dxFQ+yxiNvexwLJ+p61qYuumwV61Xw2ViHQrGlRsp8tHt7Sd33uo4gW89JwXY936Nbjxt1d5GrXG66zMZidmLQnvuPk37zvn7H0dQb8X09PTxi1TTOPv7DJrPMgDqFYqpjR2Uc1chlhKIqFFuJ2GtHOrx2WR1CKi9fdMwhMLwaMG/miUiuNGvlRHajxFstVQc4XgiPVTZeJ0PRPwdvdRJRNweN0kbxH5YtaQ8K9D5GkRThU1ItHz03+EnYUWnxsdVyaLiMZdZQzu0DSLtSp5yHCgXoEvEORudRLwob9nLmrlCjrjfrzy7GNw+aVfQmFyXM0VdF1mJ2YrCT3veev7zj/5+GPUPIF8IWsWxjTV/UrqRsZX3jBK6GJqqSE/S/2aJLRKb5X0MkJ9bu7X0CUTG+2KHWcCFoHqyBWKmMhkMKk5ZIJxxLrnIdrFuNeVQCWjJoYgprMVjG8bwVQ6i3BbAp7eHviCPj6FXVRR2nmvJunbFuEsBTT+vJI+8xgrtZ4LP7SSfq99zZzNlI50jx0aG0niOVSDWy8z5woKqlRyh1CvBhAJdSAWjiBL1/SNrz4DE4Pr8KsffzOBRu2TynU2YlaSsFarLc6Oj4W622Jm9jIfYyIR0KlhOXnGgBqmQEgZzcS7hohNhWu6otzBf5h2VjQQu3+WwZpj/1Mp+YfCkJDxFfUcsY4edC5cAW/nHGzZnsRjT6zH46u349kN4yiU6eol5pm5baKJHqRIxOntO5Attpaof6EZkHzNwsc8A0O6ZtIz2PkcWtu/BqofmWiRWTPDWURU5+0GCajp9l0eJzJajzGg5QLCqthFT3s3OZ5CJFDE6SetwLe/8gW63Bs/yAwDVr6zC7OyiWL14w99YHrzzccee8gyuEopOMtFGoAmHvObRTIVO2msn5uxiJlTRWQyPpRcLsuwGmayXhmc9reKecWIZofFgNZ3MwSZ9lgyA18oCrc3jsceXoVf//ImXH7F7XjgkVV4bt12/OSnf8bjTz2Ebdt2QHPQ9A/00NidKJTyjMEiFBgpv+7Kug9DGPNRz6FJsucVPrtD5NWUjtaz0OPQVVnQb/SZ31pfEJa6Wn3lGvyL3/nVPZARgi+KSp5xIv8IBPwMFTKYTo5h3oI5uP6m1Zgzp9O5/LDjnmVmq628Zg9mZe3ogb2R0kfe+SLvAQtj8ORGUEtPwd/wYKBvDlyRWNOo8rQhGlFRFSwtEnI/U0ON7E3Ds1w+PShLLawKmaYKmmNbxvbPR9XJawlEzbT7Dz74BD7/xRuMyJ90ymE46IAjsXXHMPr7+7Fh3Rrccced0PKHb33LiTj5pMNQo9LUKwV46AW45AU0Sacua+Y5GPV7Afgs5FxakJO5k10G/yGBW1CbZ/M3oiLPxOund8L34Q+1oZp10AXNIB70o1CYZiExgW0jQ4j3LsS3fngN0vVe/Oi2x9K8Wb7A2YXWE501qJbLp06OZL3zejqRnR6DmwalyZIUE1bVIZRWWmWcqEoZYyh0i+CnMXv4pxqumdQx2al5NP00iEoVrmjMRESlGk1IC7xQSbWsGTM15xRUmCm1VsxtpX8oWBC4XAGMTeSoeDeYStGBuXEz4mHt+hFUakFMTFW4b6WZSEre+Be+eA+v049MuowClee/NAHdo1oIvLxvhxfZHOM3uo6OaAcyBQ1yLpuaTWckilq9wfhU62xUqbAvqLQRt5WaVNScbXJV1bE7nZpGpVJDKBg1LStazi0S8mLpon40ipM498wTcPfda/HQ9b+L8uL3b+Y4azDrSDi2dcNrehNAyNOAjy5ng/GHHCbVjjrVxctp1ZIaD0BvXN1gqAiVfNbqrxmPM1YqY3w6h+GxFML9i7Fl0xDyFf7G6cf4yKRZhEWjF1JT07Kt50F5//MgJWnHzbfcBXqbpg9nLl/Hhk2DeOTxp7F27RZs3TqKJ55ai7XPbYWHZFIZcv21v0dX1xzEwnxQglHzpqtoVFA7ZRpOZMenUS9VUcqXeYQPkY4BZDJVjA+nEOuZj0R3L8aTSRSSabg7uxAKa3yhB45YHFob//lQTGgRUU/J1JYyRrRqT60jdiotr0Md4zXYeb9lC9DD677j1utRnp6+0zpg9mDWkXDrumf7VyyIIOx1IOBSDWiR5BNnvKaEVV80M0saURPpNG19NGj6R6ZzeSSHxs3MaB09C9G74jBs2zACh6cNxaqfyphAtK0PFXjhphsYismIrUe4O/n+aUSkr1wcT+PB+x4HvTh0dnSgrb0HXZ29pmvYGAm09rn12LhhM128ElxOjxnRUSvR+Lv6kU3nLOM3sbA+iIy7w8n4LAYn3UVfvNssm41gJ++9C/lqwExaJXU0E1bJb8+XoCXiiiStsnJIes3z2c3MmoQX3YxTaporRMLdlJOehp6hks/rQrmQwStfdiBuuvYaFKfH2njErBpvOOtI+OCf7upYuWQB/M4GPUu6RfUKPCSeT9OMeehakZEOxiJ6wTWVxBWW8NkMJqan0bZ4GcpqMwx3Y2i0gC998hK871+vwLve8xO890OX4dob78FUpk5CelAgf8vq3qZJSJt4IRF3//sfBX80jnAobAbMyv0t0B10eWT8NHDuU+eU6eQkn4Em6PZriQx0tLcj98yzCKjZhseZxvRWDNhUJMs0tI5+CJmpLD8HMDiUwve/cyXe9+HP4js/+CUuvexXuP7mO+E0ChjH0PAIqrxnqVktXyA/1bS3OwGft1E7PVx08UVETSUpVTRdBJWHmY3Aja6OTgzt2IYzXnwSqgzj1699ij+v/0szi1mBWUfCG6+7Y+7iBf0scEt8uRVTLe6jBUoJ9XLph5qtmixEkunpSUxns+hcvBRDG7ajs3sRJifKuODV30KmFMIZLzkNx550KE497RT8+reP4aKLv42tg9NUThpyUf1KrXxahPtnka+FRjGP9kSccRU9a68T0UiAildBPj9FY1dTTBFz53WivS2MiXGSkW98/31XcOswoxssVZLhN5OBzEJkciOXKSHSMw/joxl8+3tX4sHHn8OxJ56DU89+NXJlL378k0exfe06aIUpty9oOmn7NQM4Y2qNc7Qqtphf65Ewjm25nBJfEVCL2mj2AHUJVId4LWZq+pc6rFkOfF6GEo4Kjj56Dq7+5Y8d9ULmfJPBLMGsI+HkyEhkoKcH9TJL4lrVjIYQAR1yRUVAzYZNaAlrDROKxOhu0WDGB8fQt+JArGHsdNHbPoMDD+7DfgeehHIlgoH5ByGVduPNb3kLjjvpAHz281finnsfRaKjl7a16xHuTr5/Bhl15mIui2VLF2t4IEZHJjDFGMrrc1CZ3LzdApKpUeRzk9i0aSPUe+/clyxB96L58PZ2ophOGqq1yNeKyywwd7qWGlVfL9Tw8GNr8NTTOWRywG9u+AN+9JNrUIbW1gAefewp5EplJKiImkenqEGG/iAK3Cen0xCxWbtskdKCPjqqdbhNLxq1dqpWWknHMXZ3aspEnwkjNDTqsIP3wVU/vx2V3JgqZ6xOr7MAuyxodsDRH8t72mNhkrDEAr4Gr9u5MxZURYyWMDNkVGzoVukdICG9ZnJeVJxYtWYTxiYY3hQ9eHLVZiTaF2F8vIq58/dDNu/CoiUH49AjDsKvf3MTxsbSNBY+wheQ75+HBgL9vTjm6MPx4lMPFp2wfUcW2cw43e8G40IqfGcII6pMIs9edt5ReN1rX47i8Dak162FR1P7t5TweYkwpJGzqmkPnRifTCNFr7Sjdy6fyQBKdMnz9ARijNBKFY2695hnkWfsWdJAY9Uqy/1XVoZUutpd5mZVzfAMGqrF96JG/IZcUp7R9GWlOyoimg712pKcA1oHkXj26aecjUZNA35nBWZVY31qcuL8bff/7hXHHDTfUS2N8wUX4Xb7EdTM0J4gQ44KNBWgVlOCh+4OyZfN5FnaxxFL9NJYk7jkm79Ad28bxqYKKBYd+PO9D5lpLlY/tQbPrl2LVauewtpnN9OE6njgvvtx9ouPopGo54mMykrmXwkMFcZSGqvSQaPV5WrVaGSayUy1rJpSsM6tDLQuN0zHGVslGUwmVInnuYqimnUeDSAuJjPmuGOOPRJLFvagp4dxXqOIfHYC2XQei+dFcerx++OtbzoXRxy2D2BWe9Ig3wLjyZDadExOO1XQFCJ0Gbk16ygyqHSY1aRyePrZtajwmaazeYSCAfjcNXoeeZx60gKsXLHUTOLkdTfMjHUVusl+FoYaKrX787Cun+drPhNTQ80DNOxK7bbqZK6hU5pkSkQtZIuIM+7dvnUbevr6sWnzGjOx8bGnvZQ37rzBymTPxqxqrP/Jlz96a9v4Pacde1A/UtNboUGxAwPLeZPqbM03J7KY5EYFcTo/NDBnjaV3BYnexfjjHx/Bd753Hbr6BrBx65Qp8V1OPxWwiFqpSMPzIR7TGvMFTE+NIzOVxG9+/i54HSlyhOQje2RwVkO3rI6KkAgjtXUzYn19ZlKjQcZlbZ3qSN2DTKpAGyUhaYjtbVEUs0l6y1qTUNPfqx2NhipXTYSUihg5UaWLFEJGSuJKiblfX+kYNYIbEllXojes/803ZBxcJiZWH05uuE/d0yxYZDBKpN8zXy0MqpWEPSyktg9N4atfuwLPbQTUB16DgceGGjiYjuGH3v96tCWiGB/bgQ5uzeI5Rg2pbCRwXQOZVUljpt0vm3lw1E/Cr7BhUoWI+vXynlx+VLX0HJNWP1bFTTWXRsTvwcP3/hELVx6IK667B49tz+BHNz1aDrd3qxubbmyPht7YbIHr2u//6NiF/QlUClMsjWlEJINmTVP7loGM2ikS0vWhxTXUQk+jNnN1ZrKmyWJqinHl+Aj6+zrIpRI92iKiER+8VE/NmTI2MkxyOPi3B/yJgaFc0+Yt7HqshcFBxObNR7VABcmXMG/loQjF+vDY4+vx2xv/iMfXbMF9jzyHP963CoFYL/yRDoyMp4xCluhDShX+Im+RrnkOFwsXl4OKD6U8qO1Mad5xykqNtPnbzf06RmtQmNEPRolo5crcnKB1zSKgXEKlGsq1PJ9BFnMG2nDhG8/CqSfEQUcBKxf14MPvPx3vfecb0DF3gF5GHuGApq0gcfIZVJhMQF4qwRmJo5ArIDeZQpoFl4+E9M8ZwPTWLTydYmcVBHyKqiXVNZl/qYhWDwqU+ez6OjtRyaSw7+IFWLdqh1SXrgzUXLHHY9YoYbVSPuyC+YGHfvilNzga+a0s8wumray/VzG8k8aa40Zr8WnRTQ/KjU5DznLRmhjJ6Yognavjs1/8NiZIxDkLF2PL9jHaiI9kdiBEw4lFAsaAM8lxTNGgNEfT737z/+B2pFlqO6mQUkOezjzSpmHRDssk046RMcxfvB8ms1V881uXY82zBSxd2UMlrGBCc4/ynIcdnMCnPvFB3kyGqplGUjOvham8pglBeYooTKbrnOIk0Z+KY335P4ZRQ0PC1h+WqKiZQLulsp5oAo0yY+mqFgqNIJnKIxiIM4Yuo70jRqUaQb2RMTMWRMI+ywXN8lmLT1LBXIXehtfMOodYzMxwUKrk4WuLIDMxYc0/w/90etWw1p0hVF0h1DUMS++tnEOjkEZuYhRZTZEY7seZb/4ufnDjL3Hi2a/aj2dZYy56D0ar+NvjMbRtyyGHHLzYoakFVRGTY8kbDNIgmoZluVpNNGvqZH0RGnkkFEAo4kcvA//+rjh2DAHbNm5A2NcgCWiIyDF0msTkxFY8/vgGPLUphYE+Dz720ZeYURoWSXQeWbOxbOt8chXdqt0LYeF+R9OzDOCnV96IJ54q0LUNwu3swplnvAZvftO7cfbZx2PL5ml+/1vUKn6kUxVeW1dTyaXYSiKf2iWb17/zPv5WtBSQyZBRbmzz0vlB95UaHka1WDBT5qenx+Cql+Gn4oW9Toxs28jrnKJS5VlAReB1uVl+ZDX5GwtAJ1WPhRMJW5Mn4gojN5LGdIaFhieObLIGf5gFocPL+6NjzN9Y3f7kKovBdJ357nx+Tf/oYchANaeyBvj5iEMi+PXPr+Txtc/ywD0es0YJb7j66u94n/3dOw9fSOXK78D41AgWLF4Ot7fdqJRLHbaNCjI2pINWabCEZ2yoUCU1NkajcaFtxQGoThRxx9334557H8Y2xh7qNumky6T1KebPnYPlS+abSY66u9pIXpbe1SESURUzjAf5KHfnuoy6VK2jWHMhNmcF7vz9vfjEF25GX2+AMdR8DDM+dLhrWLnPYvR1x5lDCbffcg++961/RU9XGIXspFlLUDWHLiMtFjksiDxSrP+NElpxrAWrEDEd0o0ScsvvKlRxj9tPMkXQ0Byndbrh6TwVLGh+4/FqzlQe66OK0V3MZrOm8HM7fSgU6ghEu/ldDIWpFKpkWqSbAaWrhmxqGqVCii4sz0+3X81JskUtxQ0WWg1PGC6S2qvrKGcxsv450pLX4+/Cvc+N4KPf/D02TI7XfaEOlUp7NGYNCS846vDtn7zwsIE5wSTdnE0oMEZZtHRflrQ0Fhqbp0HfkbETNEco3dEK6BpRVdx0W9WDpl5t0O300oOKoVhl/DedQzAUxyiJopEI0WiYRpNh7FOgAXp4vOZzGaMRqRyny9U05t1JKHfO2daJ4hR/E+zG7274I7793bsxjyQulamQgTDPRdezJqVJoqs9jK0bx3Deufvine9/O/IjW+jqlkhy5m/iuJZbKsK0SCjS/I3vsEnCXdfcHD2iZPJW1lazQ4PK5qRbGWzvRCmZhY9EKxdy8AYdKPK5uOkdq4JJ9uTzhVioeeHyRqnq3EY68btfXounVq823QOXLl+K0896MWNw5iMSc6uFdTTtheW6BtHwksgsAZ2MyR2lLCrpaWwfGkM91IXxegTn/r8f4s9P3INlB57wvHJvT0SrGNyjwRef8NW39nvddeRzGd6Uqi0YaajTqGAkSoYlqGZxt9K/rrYplbE10yBcr2Th99Yx0BtHyFfBsgUd3BZRzY/QFUvC46BrWhhDgbGQ+lGZrE3tq5TQcudM4vmkUlPbNpHYPJ+7YXq4qVbQQ9WIxGNmbXktoukgWUPBGCankliwMIxnnn1OjW80SLmfu16R6V7GazW1mqYwETH/RgLuhl3XbP7cCXNv3Bfq6US4Pc5YkC5xZoqFAguzepEFkdY4pGfBZ6jeMdVq1RCnyth4OplDPl+Dq6MPX/z0V/H72+7Fvgcch87epbj25j/h0suvRrERpBsaQI0uqeLuhmqhVDnDpPtU7bDTqfZOqj3fj6bTd2omcZ8Dy+YBD9x7ty7zGP2zJ2NWkLBcLi1ZtmieQ31Fk9MTCIfDfGG0IFV7i2imNlTg7RpL036CVmYMvdmwH1ClAl2j9MQg33kOueQIMskhs25hrTTBw7Mkdp6GVkIoQBc1rooawsRpSvqL5zAEtBQlEPaiUEzTrcti+YoF6KR3lk6P8JRJjI1vh5uuXI1xVqItgv6+HmzZavWA0eC/iq6rmY9p7jCkUxIB9bdcVX73v0bLDJrXr0+mUOHjqPIaGA8WJ0fpxfM7ksKtkScNxobkZKXIQivoh0fTLZbKZopDN11XfyiKYLQTqx56CrffPYiBecv5+yjC8V68/JVvZtydxic//RWzKIxiRtWGGneUySn3m3Gh6crm1aiXBpJaNIevzcn9Wsb84H3m46nH7td1aP6ZPRqtp79H48rvX/LJ5UvmUqVqaI/JBapYMYuYJwM2RGwZa0sJm/vljkuexKFSzpS+quWrl9OIR910NzXQogaPk8pUz9EdVcoakmqlW8tYlaeIrXwNLQk1L9CQPOpfmmdBkcSKfefgwgtPQypdMN3I4rEalXuM51O/zxqGhrZxH3DYofshN7YD0ZhILqVukU/EU3unSGgp+P8WKpNeqIC7w6lCqliCP8Dguci4Wr1aNAaT9w4nY0IFxlTBRonH+P0soDxIJ1OmA0Q6ncOvrr4e/XM9WLd5EI898Yxpb1Sf2xNPORPtXfPwm9/ejFhbL1+VB4FAyKzZUcjx+VL91KEAWp+R+7q6OrhfXk4VQbcDKxbPwVOP3I9Sanp+81L3WMyKmHCf7kThsk+/wt/vTcGVGkKAJWWNAX57/wDqGs7EktRjat14sCGgCxW1YREeuaM71YT7ZJA85vmG2SKx3ECSwRCYkAIyPrEYLDCmclJ1SZiGs2xIWKHRuOiiFcoOxBP9zCeO1au24Nbb7sMNv19vKlDztOkoyS5leek5K/G6V78MPlfZVMwEPGpHU9ueCCdXVGS0zq8O1qo1Ndu/BeYmredgno3JVx90n9b9WuD2r5mJiwpmJmqSS8m83H6U6z6qYxfWb57EO9/9HUTjTri9MT4TH7KFPMu9GmKJKAqlaRaYRbz74nNx2kmHoTy+jTEwY0TNUM78ilRWDWXScLTi1ARGR0fhZD6etn6s2ZHBuz95De5c9VR1YPH+arT/35dIMwTrDezhGB9L+uf1dzMusZbgqlWq8Pno5uwc3d0yJoLEaTV0a7/1uZlaxKMxWnGXkgzfcvssw9wd+s3u+/i3IXkraV4bDzSyyIUSvbpRXuMUVq7swf972/m47NK34stfeAO+9NkL8JlPvBzvf+9puPANL0Oww0+FnKKHTKVlDPQ8Aj4PL7yevyd23YPZ6tnsnlpgHGj641KuXB6PRBFamlu9kp5bt8EMpUq0dfI7krSm+WNCPNRtmpC0GtR0GrjnTw/x936zr2LGItZQouqqS0LVDAzWUuBZhEMBo46aqU1L0+UplNs2bXBRSA6yLmbPROsp78mISIeCmqJCQ5eaL05r7alyRiooopgYbadhKWmfXq+6fOk4/bJJUEOkvwZZYCsPQfmKHFJc/itpMx80kbAqXTQcKEOjyvIyaLCFJNKT2+nJpbB8WS8OpIt6zBHLcexxB+HIQ5cxFsohvWO9UcFIgPEQ87YKAKF5Tl1fk+x/TaD+WzDy1yTyf1GYmK0uopW0W7+vaxoPfebzZ9JiM5rmIk8VW716DRXPYXXu5jPRFCMdiTh6e7vR1dluQobFS3rx7LoR7Fi/FV5PgMpHFSSpK3n1+3XurHHVOxU0Q1uNRNSgben/urXPypvbo4c2tZ7wHovk1OTpK+d7zIKajXqRL5GGSyOoVep8iS037QUGtttty5VrmNWU1IlaSYS0uoXJRFvEMmnnMXIBrVEDrYqShuK1neeRm0ijJBEruQrjST9ijJE0gpxWCj8NvpCcxPCGNfA6cyhnR1CY2oqQjwqQnUA0EULXQDccQR/tvZmnIZ4uRo321vnN5//lK7Q4tfvz0Z7mqcwzaN63uf9W0neE6eRtrXdhQKVTDyARsVBg3LtlB8nTMLOdBwI+ktCDickxTI6PGjdUaleruzE6Bjy5ai1CHb1AOEq3wU3XnO+kSUBdk4tEVp7qA1srFVBMp7DfQuDZtU9TWZ0rrAvYM/G/e4P/B/DI/fedtmL5MpQLCuYrpvTUOEEzyRLjChFDNd+CMZymMatzsKC2PHVUrjVVcFfSj3TsC1OLiEo8bmdlidRwd8KIiBZRfIyTPL6wmaulkM7Cw3O2t1ERliyivVWZUw7Vogbhav3CpFUBkkkiuW0rf9/KT0n3o/Nyq887K4P+3rCo+fwCiObf2qpdVYl/a+iW28uQjAfXqFJ61lWpIx+HogGtNKwJndw8VhNuaS4t9cPVAGQNrE5n8tZYyLFJE08ilWFBxfdI17aieVGbdRY6VjNzm5WqqjxPuYT9VszDpvUbRNQ55qA9FP+IN/hPxY6tm3va4jGzVmC9SkXi21fnar00A+NmtUp67ZOB7YLlgqqkd/MoDaOxDM18t7sRmv0tl5WppUKmEka1lS0iCmoEpyta98LjCpJPZVTSBfg8QcSiHXC7vCgqGJoYN1X/jjq/c/Ma6yXENbyolGMedcTbmv2TRUBeo6WuTQVkstTw+ffzPweLG2PorWTBfLIeQHPTJKG2IiKTIaS+1IxsRrWs0frqNqhtR0eMnqWGYjlIthSyqaS5v3gkzHNW4XWRmIEgorEwigUWZoUSMum0WbjG8nG1sbaK781kXXyvInU8FjEF2fDwsL4Om4P2UDQtdc9FrVZxakoExRfqcqgxgx6WtFoY15q3hC+N6YXEqqiBmIqiMX1SQmNU3K8DZNZK6ju5M9EWpJ6mSWLngjAipOWSWfnqDDKaXcasY4JUQU8owd+ROOQqHH4qQZCSEILWyA96/dAI8zINVbO9lemyFvJUQ1OQ6EZ4LpMs9d0FnUvXrGsR8XV9u1UmtSqUmF6I1vXWSZCaCjBulXTl1jlaSXmajbn/1tZ6FvxDnT41eJcSqL+D/BygK6n5bHo648ixrImGnLzPGgmZ5jVVkMtNMowYp4vqYmzH85XplpZZ8DCDYCgCBxVRnrsGBRsSKryo0o2nO8uijSR0o629k8e7kNHKxA4+0D0Yu7/RPRKBUDDnoo+Ty2rIUbuJIbKZCdqv1atDwX614kIqmTfV6A0em6aRNzxRaP6ihotuotOj9TOZR8GU4sVsijHbNK2HBaymw1AyxsD3zqTREk6qnKOuRma/UUVLTXVFOsiqyVSspZ4kLhePy6shmsbqDNDo+NipkOp4girVrCr1CPNaI8BUCl4WKAGtpFtX4UGis8Aw51AhIRgX2BqSZHrraB0NFQ48n6YJNN3o6NqadR9cVZQK6oBegjMYNDWZuk5XJMjsGWsl2lFyMN4ikYv8osJ8eNVGvZSjIRxvSXP1tNLzCifNBZNW+yFdTRUG6v5HJStnp/D/3vwaxFnWDG4bRZ4xnM9bJJ+SvD8eQyUc3DaJVY9vR5u3jmULulFjXO+KRuCkf1rmvRYYW5qltj1aQq1qYkHTI8rpwtDYFPyhOJwm5NizF4vZ40nY1t6R1At10lDl+misn1sKYlzDKip8kfoulmDJqSWbKZdahjoQjqO7dz4mpvOaqY8vO4FIrA0ToxOmA3JwDsOMsTEaFy2wlWic+t8CTZXGbC0oasVmRhn4j0VAEdFq1rDUqfVDkVSJ12dcZUkSr9fko+s2B5mjrQoiqV9Tbc2X1nW08jcXwWNEQgPjWpKkrfOwgPF39bAg8CI1Og1frAOuQBRjQ+OmZ0ux0ECuSkUp6n6o0HwuNZJpbJwxmqYEMdB5uGkm3ae519Y5zRcWREz1dtE4R9II77z4VJx3zj5YsZyKT6o0agXEwg4sW9qPE45dgI+843hc9MazcdThB8AVIqEqJXOHalvV8zBd2ZhnvaY5aKjRig35d8PlRppkN1OX0Kdgaj65PQ97fGP9g/fe/ZXrvvPBf333+cejsOMpJBxpuKkUnkgcwfZelJ2q+XQyHmMclpMaeuBr68LmLSN48OGn8NSqDSgXyujvbcc7LnoDych3Wc4wZ3XXolQaO5NZEHSDaB7Mz3ILZf/qYiVjN0Zp8F88T8Pc5mdlbgxZ+TMZYopAysUithX/NQlqjlH8qePo16pipq7RDPzO7Kf6aX/rGvi7Ev/UCJEgvYQ871Or+noZrxWpKv5YggKv2bOpuvEokk89gXhHFNOD28njAhLtcTQYn6pQsdB8Di0871Z1vboxKamejzV9hzcaRbVUQ76szuFUNLqYTr6DshST6iz3MkIKOV28fnXvy1PpeH0OXwj5Iq+Rt+921bFj9cN0aT1mEuaKvw2hvuX42k9vwaODDtz18NoMlZs38V89/P+b0Jvdo9HV0zucydBQ3C7L1aKrotpRUzHDAkbrrauKvFQu0BUiOT2M/+ie3f/nP+GnP30CgWAMS5YfgGS6hGfXbcU0fdRSpYF8hr5iJEq7Yj56SsrOWaULV6NoVVBzqSJGasQN3Ubz+ncmGquSUSQlEaOZnBpO1Uwiur43mfCHRiF3Swb6rExbf7egiyJ2fmd9bwoHZigSaKyeT+P5GgFachTBeB/pFMXq5wZx/S334eMf/yrOPOej2Pfgd+HwhW/AZ7/4TTy7ahMS/fMRa++iStJ95LUZMTK5C7pXEk5pp3usc+s+RLRmAeFUgVBCanLQ6itbmKJLbKVSYQKVwjhKxUl6LQV6Kyz0GELUcyleucYRMjv1cKInYFClK6ppPvi3XFNLCZ0YHB1Bd3e32hDJ4D0Xzae454IkXDs8PmEZhCGe5QTKnWEUZlwqkVPEDMYZQ1ARJycnTdLXT6/ZgT/d+wjuf2AS4yRgnOrp654Dp5dxCeNMCZeSeFZncFQjEa1U4d+q+KEBmsSLaSWD5v6mcZpkalFbiQQ0WzXy8zgma+SF1c3O/F7JGLgSYfbrlemirFdnTml+o20zUYlEQHWMztLdjPQuNGtS3HbHI7jsJ7/DRz72c1xzw+Mo1uM44dSj8bmPvg1veO2JcPm68J4PXIUnHnua8WPUdB+ryQ3ema9xCPnZIrlRaO7fVWjoXpV23WOstw1tHUGEQ7wqFTzVJK8ug7C/hPaog0ont1Uj8fM8H0MJxqpgYVkuMoZl5pq7Rx3Ddd9yyVXY6j1Xeb6RsQzmLVwgciabj2KPhPUm92CEQpFVO4Ym+II88GgcG1+FukcpVlDNWjGV4jEh0+5UzVttiZ3tbVgwby5VEJgzpw3TyQZjS6C3r9u4QJmRYZo93SWmXcbdIkLL2LSV8clVM1SwkoxSUKHQSjJYGa4xaCtpv3hkGTdzMr9rnsNAeetv8y0/a/tCKJ/WcUoEM1X+dbqxmsgqHO/Bb35xHT7+6a/iG9+6CXf/+RkEIh4ce9KLcMhRZyDWtgQbt6Tohi7EEUe9GIcfMxc33XYnhkfGedkkIU/xfCLqH90T9xnz0U1o28KuOFidrXNDW1FIa9LhCmIRN5MLfneJijhNb3+MhWXZfAfGj/R9+XOmShk1xoaaOd1FwimMcNGFNc0hDu7zeVCkOo6w7F26dKlIuMU6956J3Z/eHgmH0zk8NEZD4av3kFVVErCi8TSMfTRGTSpo1iSkx1Lgy9SESwiFceD+++Lgg0IYGprCKScuwsf//SIsXNCHVHKUNqDR4V7mpepLCxYHaHZNnmm9Q0U/FkGapFQ1orFRfqMOAE4SweFDxcnkCNAklUIm1Zjq/FvH7TTwprG3SGc1L1jnM9vdePi8Y5vHC4aAJh5T7OrBmmc24vKfPIKJ6Trau6MkYBe6+pbxGhNYv2mS7moPqvUwC7BODE/ksXDJPti6Y4IxZMysTiWi7XRJzfma5+b+522byTKpZk0tUygaZJztpSdSR72coxua4TYPHwuvkJ8ES03SYeBzVtsNY0L6qDwZXVGGEuaWSMS86cLmNYWqCgQX361Wy1JT64JFCxV6bNR17anY40lI1NTOqx78Xp9qP1mQqu2q2V8xElZVvzXgNNLRxo9VpHZsw5z58/Gv730XLvna+/Hud74BK5f3MVYZR1+vBttqjpppRGJhGpIMwiKD1TQhAtIQNNJc9i8C0j1V0sKjclu1bmDV6UWZ5CuTfBVHCBVEmKJMMZNKiGt4Kr8TUdVRwDJoWrIx5p2EMyonNMlGtL56IXaRRP8qPzcKxZqZfTDe3kHv0Q9fMIGpZAG/vuZG3PXHh/Hb627BM89swvU33YanVj1Dt/xx041sYjxpFV5N6Jy6xl0QK5suaStGNEn3oOOseyhnC/RACuQY1a5Rs2pP+bWH/7i02EulCIcWTgzzXCSceaheJ9z8XKci6jxqN1VDvfE5+Gycbr/mFuab0boaXVLCPXqyp92f6h4LDfbcMTKKYqmGMEtwj9eHsR1DZvp7zXmiBl2116mq0MtSNBzwI5dKolzKwefOM3yZRDa9nXag7lDT5FUWoViAbNbIebXFsVTmz63khrPGpAZ7MU4DXUM0EJb0Sbm7jKOylRpGUnkSjCTzJKjKdHNrUWwbrWLd1hxGk240PHMQSCymcYeRL9XhCcdp5G4zD4ta6MzkxKqYkPWb2PKvwVKcv4Yar10dWuSiR8JRPqMK97kwb8ESRCNxeD1+U3GVotuuZzUxMYHubifijJ9bvVX+c4h4qsFt1eI2U5OU3ngnCUQPgIVBhUkTirhUy8zSslIowcfYu6HBy6aPG/PQVhMSk8GqSFObo95fIBQxU+yrsJ1K5rBm7QYTQux/4AF6Qn/QleypmBUk7OoNVgaHRsyaEulsjq6V10xx7yDZ3Hyxig9btaUtg5ZOaDavoI964coxtMuYGjyNXshlGWMWUmag6vOgEt6qoaGxiCB6fA0aWB5lGky4rQ1FZj9NY+mZswj+WBcJ6cEvr70D7/zAF3HRu36At//LFXjney/BN777C9z/4FqqoR/x3rk8L+MgKq3XEzQKXteyT1rE5i9gXb/UTon/G0h1WuppbXVcHfEoiUcPr4NeQDaXQaHAe6VPXaeha5Jer6eK8fHt8LIQ0YDmbKZmRvaHwj56BqrBtaDzWO53C82TGeg5KFnEs9TQImNxjO4mRdATiLAwCHOXn4exgPPTBfZG+JmuepXHy4UR6dUob3o9ueBLqGa3RvX2mcVHw9E4kpki49xOuqIFzFtIFlr+yHqmPRZ6cns8Tj/n3O1jE3zZdAO1LoJmzK4yLqxk80YNlVxaG4wvlBE/jY3E453L6Dx0I7Xij8fNCI02Hwi6aYBBU5+ysw3VWLx2NJMa1lvGxkdYqddQLNfglqpUHaZZwOVP4JEn1uHCiz6Lq6/9Mw8P47CjVuKsc0/AIYcfzbgrh69fcgUeefQZWjjVgPFbpWbFc+pcoOu3AjGd478Di3RWhYiJ1IxCqo0tHAKGBzfznqtw8141qxsDMLqGOfi9JfR2B9DfG0IpO2Zi3oP2X0aVt5oKlIfpNcO0i+SW+qqO9C9hPROTeO1OkkzT6KuNtVJuoJiv0D2l687SqlzkXfvjqDqCLICogj6SMtZuLWkuDjM2r9VLVFLGuOo76lEPJaorj9uwYQiHHnosX42X7ofxTPdY/Hff8P9pvPGi91w3whK3UiWpfAGzGpC8z2m6nFr7Qaqoam0zNIZfyNWRMhpDUq0lyaahMsZ8aTgy33KxSmIpJpE1NI3KMLOlPYQ+8zwBL0t4luYFGliDbmp3z3w8+eRa/PjKX+Gss0/ChRdeiAte8Xrss9/hWLhoJQ4+7Hjst/+RdPn68JtrbsbjDz2FYKjD1GiWaJiUdF4fr7loxUQvJOLulyCIHNplJRFR7ZeaJrFCgiVw1unLsG1LFaEA77mep9KoQ0ORcZk6judQLY1g43PPoEJX9c2vPw6nnnQc8ulplPJpUwHlEumaJDTEM3Gqkmy/9Xn31IIW41H/Tykv/3L5qH5BkomFHBXR5Q1hYooxoSsEV6zHUsg8vYpcljmzwPR7UK5p3hoWHHyHxQqjaapggc/owUe24sgjT+Yr8ezRNaPCrCDh8n0P+pVWpFUVthpzg2G5PU4TB1WoUMYNbZLNGAk/i2r6PpOtMFR001hi3E01qLroGfnoJUUR7Ow3Ja/pKSMCKumJyQMyASI/y5Xib/2eKFWW5Kn7ScYqbrrxNjz7TMHEMVu3DWLzpm1ITqeRTmVN/KXJqA479HBs31bBtdfdgirjTDfVkkbFS2SedOc0zeB/CLGhafDmYzPtUiir65j6kIZCXhx9xIFmGYih7ePMs4iuhId3Jfd7FGPDW5DmdXV3AOedcwBe9apzmFcBtWIWiUj0BQRs5s/naHXNs86htKttkGxjsto86Y3QvSyTPObdqIaTzzJLVzuTK0ILYYXiPXQs6DJnqshNZo1H4WFcrTCiXtEya+rIbg3qdTl9DLnDjFuzGBwHDtj/cL5n7wd593s09vhua0107h9yjP3qkjfAmxtER9SLyVQaTpbC4bZOxkWMP0icmlaxlbUGSZiGF8ms5hxV+6KXu+gC8aXncimqKF0mqmAo4DOuq2r0LCOk8bUel7atzwHNAkyiesLIFOp48ukt+P8uuRqRhA+ZfJ0kl9HSjaIKmLbLfIkcblBBG+jp8GDbpix+9MP3oqczCA8VyowprBTgDapyqKUsKgAsw64rpuNWLqKrJteYX6u9UgSQgqjA4fk0zX8u50R0/nJsfXYzlfmXeHx10sxpo3UG20m8g/YPY9G8fpx04vFYMEeLqxZJ1q3o7YzD4XOjYXqxME+D1rW8ELouba1Cw9TymmJOBR+TQzMMsHCjF6KwT162GQjsjjBmDvE7B8LIwuci4dQTqV5Gic9cBB4f1dSSNVTSObR1zEemEcefVw3iw9+6DYPTE3DE282Z92TMFhI6j+jpSX3q7fuG9x8I0zAzNLQKioyr/KEYOtsTCPtcfLcFxjk0EI1QoIKNJwvo7F2I0bEplrRlUxuXSERJ3CjquTRVo0wl1VyXKvHlrKqmVA9NikDITazQmBQj+qm+viiNzosf/vRX+O31a7Bi/16MsHSXm2kZKNWASdO5a8p4F0nl91Tpuo7hq196HQ7dfym/z6Gcn4S7QRdMPZ41sNWAv99JQg2eFQmdu0goojhpwKbzgKDhWZpnxwsPXV1d28b1W6gyId5+HMl0CtPJMXQm/GalqVhPN5DNIDU+hogKHypRangIMY0keSEJee5dW53c+tu0ExrSaUsSUvVU26tYjkJm4vVoNA5EIihOTOG5jUP4w33PobOjG4fv04cVS3gN9RwmJneYSqmOnk5seJYxc6WGBl39cLQfJXc3vvKjG1BLLMf3r7+LBR/jjT0cs2V9wkaxVDpydO39y44//BBMjoxRYboZ+5RQLmkBE48ZyW31OaSB+RMo1n2Ypkr84Me/wXd/cCt++PNHccftjzPumEZf7wDjFCqJKnJMKU/SNRvkNe+lYkppjQENrqj12VnSaxZvV7QNf7zjjxgfT6POeMbrDtIALSMOBYII+DXqhkRiKe8kqaZo9JpB8OgjlqC/t5MKnIebEqdeIVZFUsvgxf7mlh9aliciGhgltD5aH0h3urRFxrZVpiw9g77lS+Bg/uViGnPmdiBBjyEW4J1U8kgO7aBLOI0gvQJPOIDpoUHEO7tYECm+ZH7m/M0t/1bXNUM+bcx3uk4+KxUUphaHfzGpfsnFZ1CkN5ArVOnmR1jI1HDDTbfji1/5MzZsmcCt923Bkw+uZlxcx+KlSxBOtFH8qIaFHOPSLArZrFkTfzpbRaRzAb7xw9vxtvd+CEsOPpwPEXv8ehTNN7jn4zVvufCuG297FhPTQRpZDOM7phCiFfiraWSntlBVqGUs4ZHow1DOg+vvXY/3fPIH2DLlwYnnnIMP//vbcMGF52F4GvjE574Fd7CdhPVTdWiCVB51SlatooNxj8bpGYIw5QrT8HcE4AppXjS6U0Enjjn6EDMAI6xBqHRt48EgYlSgWklr82keTa0Q7DdxjtYrDXqBpYv6qY5UC7nMXj8JkUOjxFiKxqjJT4tqgwwF6SL6McZCRkOoGlWRQT2EGMOR1A1V80t1fVR6FjT1sgshbwxBTwBxfwC14e1gTogFyyhOb4KjNAZnKY0APYCOsB+JUIDuMN12Gn0sFjPTSZjpP5xWDxwrefi3RkkoNcc5QmMd+bchpAocFVja8nJ4vFu1xZ429C47Gul8CF/62s/xu5uexSFHzsPZZ5+G15x7Eo46+Vhc+tOHcft96+je9yIS7cHkeBINhgUD/X2m907PvEV4Yt0W7OBjXnLAASpn7jQn2cMxa0iY6Oy5t+ryNqbSdbo8PTTsCJwshgOqZ6dLmZueZIzoR6rowK/pxvz7F6/nSz0Ihx1zBqJt8zA2VUG24IYv0IECjfeBB59EOKzpJeRWWefY6YZJDJoKFJrTTbc3jXIjh0IljcrYdhx2+P545SsPwqaNOVSKGarQBPIZTWGoDswF5DKTSKXHUSolkWT4d86Z89GzYA4K+SRy+RQlpExit8FBVjp0/SSzhylNtdJs4T1Uaq0L4Sa5pMSeIGNSEsOh1mt1iC2UkB2ZMO2mlmDLfZZoaDa6EilTZMox0T2X20t302kqW5SYJT0GA90v71OKpucgQhqTkctpjra6xpnKK9MuaMWBgnKwGkpcumSE4r144K6Hcdnl1+DZdaM48yXn4fQzX4k5c5aZcZ2Llx6CF511Br71/RsxPpZnmkYb3WZ5GZUiY/SGm+FDHltHkthvvz609WoOV3zcnGwPx6xZLtvhdE7c9btffDjud7oXz+uhrU+Z9j+v3zKMVKGG9kUH4jMf/zr+9Met2Hf5cqx7dgeSUykKWgNhGnJnezvm9vYxTnNiaHAbFi8YMMs/qyOyNVhVUzioml9xmGpMyalSBpl8BpGuLgTjCUzTvVT3uQMOPBBLl3WaBvIKY9HJCaYpkiNT4vVU0NXlw+KFvXj5eYfi/PPPohy6UUlPUoE0E0CO5yobd9oZ8CIzOsKQMwhfnOpE9awwFRkneUMhupsVq2nGw+NY0Ezw2GAwAH9vD+NJSoZ5OE13Ud3rNMzIuNaKcwXLbTUwO6y9otBOUorELZJqy/ys/Uz8rVnj0Pyl83DLZ9OqGMoXHIjE+/H0ms344pcvw9PPjrMQ6ca8BUsxODSGrTuGMTY6gbXPrud7qOKJVTuwbEEIBx22DwY3PE3vwEGP3MkY3w+nrxPfv+omnHH+m3Dci89tOLzuf+dJd/Uo2EMxWypmDK7/0TefuPn7XzrwY+94HXIjz6Ijqh4jTmzesQXRzgHk62Fc9M7fYum+A5hI+eEPttF9HUU4QjeML7uYS5FsBXp/DrPu3ne/+WFEQtZsaK4G3UTFg8aeaWgiotxUf4XKydKarmC0rRflQp3qVkRn5xw4QlTSYh25XAmZXIFxjjVsScOqAuEQoiG3qUSiv4jpLRuMbsR6u1CaGjUEDNI9VNumoMqOdLZAoQvD18FCJpXF1HSKZO7DxNioWcuixtjO63NigvFcNByh0lZ4/RH+WjkTPLc13k8kpEvN/ZoawxQoOyEyWdBvrL9an1q20lRKk68qnQiTX7P/rNmvmJrPuH8F7rjmNlx9zR8wMlFHrK3NtA+m0nl46CIXimX09fXR9ZyEz6WBvuNYNDeAz3/+ndiw+l49Grr8fGb+eUjXO3D+O7+JW/58LxYccuRzHr97uXXyPRuzxh0Vjj/zpfc88cwIphl7OagSFRru9pFx9PbNpSr6MLJjAlrLJOyJMu5pMHwLmwqcMl0eNx9FT2c3S16vKdlp19Bs0JZKyN3a5XJZ/mlrSw9QBFC1ei5JdfKaDuCl4hTSwxswProB9SoVLlJHe7xhUjzK66uOUrWew/T0NtSmBxGL+xGK0HCz43SJXfAy0SpRpC/noEIXqXaqInF6g8hOJFGiOnQtXonJZAWBaB9yJSdSeWtBlnAiBoeHCtTPuNapOWXUfieSSP1IwJ0kEq1kArqPVhLRrLRT+Xj8zu3uiYeZaTX0XJ73nJTkpjLYLTRw/Q23Y3CwjvkL5rMAYlRa4lndAZQrzIM/y+TSGpJmKpkC3gDcTg/WrV5N7ySINGNjlydkhmTdcPOfcNxRh2PpAUfB7XV/jiecFdAbmDVI9M37WLQnUH9myxYEEzRc3p4vFMbEVBLxSBzdbR1w0QbHB4cRDfgxNT6MRqXIWK1kmi/qjB1V2RIJBRH2w3RoNhV9RgBaj4qG2oqN+LFYLKKWyzEOjfJcAeST46aG0x/TEB6gLeExA1pRTyKT2s74cDs9wRRiwSo64m7Ewh6en1dK0mnKeBMTuumC1WqmUsLto5s5PGqMtqN/PnJU1iIJGIi2Y8fmEWQKTmzcOoFUDujc73BMTmfhpWvtDvhQnNY4SxKuWbNrku5gJ3lEuqZK7gbreyUdz2QOaG61z2y1T1vlIezKj79s/u3Co3++n55BA/1zohgdHacbrcmbQmZEvDxXha257BQKJKKIXSkU6VZPIeijK5vPG7qH+S53jKZw1e+fwNve9a/8kUsjmq7VWWcD9MRmE3Kvfss7pm74w92qp0RFi0B4PXQTE3js8YfQ1RHFu95xEiZHpmngSUQCDcZ0dOnawqbhvML4zk2lKBZIBBqZFgVVQ7V6dComNJZprK9pnIQ/FkcmS8Ohe1ih0ZRoRJVSCdX0FPKZSZRIKjW+y52Nh50muRpZxqwT/G6SeVeRzyYxunkTCpmU1Y5Zt3qIaDykFjRVFy+l4cEJlGtudMxZhg0k4A9+9Et85nPfxpvedRk+94VvYeK57ejomWOaA9LZvCmARMKdPCGsCaGaqm4Ui3rHc7Y4tQute3xBMuRtJV3f7s/kL6HOCSk+zmQqDU3M3N3RTjc5h23bN8Mf4JOt55BI+BGl96BBFG5XjYSs0TOI8P7prSQS9Px9uPbmOzCvN4KjTzxVXeDWMmtNzjoroDcyq/Cqd/3bN+55IoMRSoODMUemWsH6jetw2OEHYmR4M1YuG8D73/dSvshRZJKbSYg0nPUMX/wYDaDIWMqJ0aE0yQksWzyPJJT7JiWx3DiV1labnP5uIDs5jVi0DXHN5kajjsfb0Ma4R00GQb8PwUgQXsZJqoX0euigMe5RQ7x68Oi7HI0z1tVNFzWGgNb0oxutGdLUibteU3/Usun1U2UMWqd71zV/OW763e/x3vd+H0uXH4SzXvJKfP2LH8CiRfviY5/8CpVU+ca5LVKly/yNCLY7cTQES+ST261mhV0mICoZTukeTSJaHDNJxzKZ35DErd8ahdVz0UH63NzyOcXiIZUpZqa1gf5ObNu2zrjrXZ0hlMvT8HhKdMlHMDK0GWMjOxAJOvDa152J8SmqZr0Gtz+G8UwJN9+1BR/6xKeA9kQDvsbsqE1sYlZVzDTR/ZoXLR/2Fbc7PnDxK+DKDSHiYgxWKtJsfKjUwhiYtz82b0/jyl9cgyfWjJqeYVqHUPPt1hk6tbcBb3vbmTju6AOpapN0mzTfCWMzklHuacuYucNM/yBDN+a4u+QQxib5j3HrmoZqSNwyUv7KzEVq/ZrQPmUj4uhIN+OnKko8SaKjHy4a5OrV6/Dpz//IDDfUhMcOWLN0ZzODmJxs4IeXXoRFy/qw7bknMXegm+5d3sRaGpCs6945NSKhyzXND7y2VrOEmiqs62DSR3V1oatNadW3fH51eKj++WQaQe5XjaaDhcnolg08jC54NIRapYZK1UH3OsLUjst/8mvcevt60wVXM92PMN7WQOPOHjAW1ERvHhx50FE4/OBD4KoXzXqN0+mtKFQLaOubh0uvuA7Jcicu/eUfGID3ZOmrqrZp1mA2khC3XPODwY++8+K+yy+5GNXJ9WjzVtAZ9jHWSNKmNANZB/JlD+YtXomtw+N4+pm1mBibNHHdimXLqGwB9M/tRjk7TvtkXKipBKFJdUUoncEyaLl11LjnqYkx9CaZZMgWLUUpS0mtJDAjBUV1P39vHWVZfesXquZnvrRaTdqUo4vmDsZw+Y9/jj/+eSMCNFRNGFyrhs1QrXxuBIVCGa94+cF4xctOYVxKH5CxJoXXjIQwC5kyP+v6LVgkVDc43gXdxl3317zO5rF1zd2qEzqZB1W6mM2ZjjwisM/jZIHAA6l69UaZ6laEVl9yujXLnQO+YAcyGfqP67bj8VXPYiqdQSeVf2DeHEQZN8+d00kXPYCQL4SRHYN0zem+M6buGujANF379YNTePuHfo9fXv0NHPOyC/l4Y8c7HI57rSubHZiVJKzVyheeflj3FSccNAfnn7w/GqntiDiKSE+MIhJrRyjajrHpAlYccDgN0UPXrYxG1Unj8cPr9hhDCMYDaDCWq1ZbJFTzhBRDZyA5mrWBaguzCElI7f6ChPrcfMbm++Z3RhmVj2oRn/97wVJDF91QRo0kkAa+hhPd+NrXv4dnnhui4XN/lb91RsyIjExmmAVJCV/58huwdKH6YGYxNTaEjniC19xUQLKuRXf+8d8jIQ8q5orw+MNwiYg+TXnBvNwkfmqKbqaD555EJEFJIxGzdCODwaDpGJHPVugSO5Bo72NoEEOF7rFqebVmf52uZk7tqwEv3XQqLBV748b1pkLKH45hMlvCvJUH48J3fRad8+bhp7+5FWVXeMofHdBI3lmF5tufXXC5vL/42Be+s/kHV6w2tYehcBf3+q0+obSySinLF1/Btq2rUcyPmmn3Aj6t+JOn4YzRqCZQTE6iVMzxAVmGaRmnoEdG6zVG/XxlEXYRcHc0Td8QTIrUTIrJdn8F+t6QU+cT4Rn+eNxmBo14TweqvJ5IyMPrBnLpOl05Fw17mjHVIKYmS1RwLSutiqIkSepF94IFJq+/hC5a56E6m/Ptds3N81twolwowd8/B64Y3V5/BNOTKaQzZWTSRVTkSnOfPxBBOpnh5zAJSDLyfmtldfOrIxYKID01gtTIJt5xHpGok/eTp9s/Cb8jB1ctx++2Ijm5CfGIeju5EaZLG0704+Y7n8CGHcCnvvIjVKiU3nDva63rml2YlUpoof7S5XHfb1916nznG19yPJJbV2HhnDaSLoNcKU/XLogy7W3OvAVmoGkmVYCHrp+L/0k1XPTjquUCC3yR0BokK+ysXVRjvSEQabpTXnY3YOJ5Bv1XYPJrgseLeC3ITdVM1MmJaSqRZkpLwBlpxx9uugVPPL4Kq5+d5H6gp6cLvT1RvOZV51CZeM66JlbKQ6sWh30Bc83WdStP/ctjqFr6LEdZbqVxWa2/uFPJujfTbuIJYmp0Cp5QDJG2HmSLanv0QlOATg1vRv+SuZjeuh6JnjbUstPQTCJ1Kp4ZtlRjJN5crCebz5lBur6gm16HWma1foUXY4PbkCsOM76uI1d1o9BoR2LgWJz8yk/jQ5/4d7zx3e+FLxa8J+AJnWJd/OzCLCYhnHde+7PH3//y1x/wk6+9HoHqBFyVJIN+qo9bbW1VpHJZ016lxvxSoUp1DLHkr5rBv5bJMg5TUEWDbSmc5da1qvf5WV3Bmt9ZBv4fPU+LpdY3Vs67Y5fLKpdQ2M3OnF4weKJ3WUKBxh+KURHpmk6nNPWDE+l8EbFEDOViCnMYX2WTw8yDKkQG1EpFkjLEa7a62wmmx4zyd/A+TQGi+5CbqsKm6T7rUnS8Yl1vAIUMVQ9eRDv6ka80cNUvf4cdI+NITU/i8P0W41UXnEOXvYpaJce4NIWwXzMDUA0rNbqyBYTiVFEqM1j4NeoVuqbMt15mvnkEHHHTTpjMbkXVTeL64vAn9sG3r3gUj20s4Td3PIZ6OJCNR7CYVzWqe5ht+EuLmD2on3Lea8+bvyCKhx9ei+VLD6Gr04NyxcNS2ktj8KGtrcuaOr9WMuMGZYA+vw/+aNS011k9ZqQiVEczu5oMlspgFujkVpSRasiwHdYIcymmUU3TQN4aYc74i0cb5VGS8TeTCLGrK5kI3do2e7kwlgWNu1rREmDqezoOd8SFtpiX7qgDnZ1+JOJOdHb4MbhjLcKdUfh9mjKQBKDbbfJjYbIzmfMwBtaEu2bS3d0I/0I0L1hK5vYyxisUccm3LsWtd6yhmkVxzHEn49HH1+KO2++Fk0qtqTk87gBqOiXl1eVwIcQQQLU4pYlxlLJpPkuek89b9xcI+qiko6gy5gy4NRs3GN8GsWHTNlx945N4/4e+SBc0gGgEn+cPZiUBhdlMQsKx+bu/u/vmb//iEdz/xCbk6yF4AlpOy8dSukxXqE5Xb5LxSR0ep9zLBhUxjQZd1ga/C2lK9ibM1O9KhjzakpAmiZBNZdz5OGXYlnHvHk9an6U2FlHNsChD3ubfrd/tZCzzpduXHKL9mZH4HipcFYXJEbp6iqvScDeySI6rvTOL/r4OjG54hiJTgocFSSwc5/lUaDQT3b+dbmbzWq3zNvvE6jvTl7R1PL0Gqq/m45mamkIwEsFDD40bd3PDc5tw1VW3Y3IK+P3tD9J118S8DgTiUXKuSGVmjKi+tZOaydsJX6KDxI0wf95Xtc6CsMJCLo9JKne6wBiWrnbZScX39eE7V9yO0888BSe8+AyNadZVfc1c7CyF9SZmMQb2O/iCU192evnrP7sejcQcjOVoVB4vPHTZWDTD5wrQoLbCS2LSGulWkSRGieg61ZhM38umkvFxaTiPSYxfarRGjV5v1CMkbWudQrl4VoWNUqNGAyfBnVQFdUOrFnK0zRK9zBrVg8cE5QpKGUg+dfx0+pCeyPPaSG7mi5IP8XAvvI4QGoyXfLxOVec0alQPXw1BZwEdwQZc5Qzq6Sl00XV1001tTJfgdkR5DRGmKPMP82JYqDQCjNM0f4uTBVHV3K9Gm1j1pipQeExdx/LiWLBUNWkvSTTQ14np0R047+zlyE8DE0M1zOlrQ5k/c4Rj2D42BW8kwN9k6Emo5TTD+JCFh1f3xefJ544KCwF/DIh0ouoMYiKX5i0W4W7zYpoFZCW0EvevreOep4GzXncR/J1exsH1H/HCJNmzFrOehETh85f/4vPrhnP49U13IpjoxQRjEY8mnaXaaBFKzXGiBUhoQdAkQ6aXN6GZn0UkCy33kTZqppeoMtGVNPuttsJd7YWtrmI0Rs1iTSLWikXashteLdCuw/J0MdPTaDAuhYfn1Hp8Xh8ajEkjVDAzP6dDzR9SaP3AoomUS13dpF7qheNq8G+qpEb8a2uOMQWACgI6yMUyamoZl8hqzKHLA5fHY7qQOd26brmn+oEOEHiunWrJS9OMZxr/OKWRGiGcddrJeNX5+6O/24m1a6agtXiOOOIwLDhwP6pzFaNjwyjks3DTjXR1tjMDegiagcIkfuZpapkcpimhGgWS6G7HOJ9BqupnARnAxR/5Ob58yVdwxstehSkG7T6f873mQmYxZnPFzO7w3/XLH21862ve2vedT52Hw/ftR3p8I125AlzuBrLpjOlulkgkaDM0fCddsSpdKRGDpXiLfMZDpLGaXiayJiqFU6vk6k8TvyntmudF4w4dniAFt8A4yVrS28nzVekKq9JR3UUytGIX3cxSvsSYyE/lqSHS0W2676hG0aGp4UUQEd4kte+JMKpJ5aWKMCYu1T5CW+4z7jKV2UF1M5MJq6KGpKXDTYKTuE7GhTzWTLjE+9Cqw2ZYk3FHmae5BxK0h0RKTiKTTCEU72Kh0o5CVn1TgVSaZCI5991/CUJRD5KjmxGPUadrOZRyOfOI/D66mCUWQnT5NYSLd49CMcXby6BQZbzLQq/oCiHReyD+5d8vwYZxJx5dM6ShII1qvfY2t9slJZzV2FtIKKz40tvOXXXXjTe4P/exC5EIVFHODsPvyJMAGbM6b3t7J0I+um9yJ+kWmlnUcnQNm6SzSMBk+q7J6HmcjFZ4HgGt76SQ6VSRCtLFvOiG5YvI5RgrkT1SDQ1Tau8ZsFYY5tEeqlOFiuyhm5vPpk3fU60NRVZYeerc/GSIJpAsKgR2ksa40dY16vwil8Y5OhzWDOQaNuR08zs3j3PxeB5S1tRrqnhqeM2kUWb5bXMS5VExtZ2+AIns0loQXhTlUjpDCEe6LZXPJ/n7Mnk6Am/AgyAVcGJ82PTi0WpYGhXRUAM9z68Jl0t0QZPTlE8NWGaMuGkyi3n7Ho1fXHcvLr3yKdz859uw5OATGtly/YFwOHACL0I3NauxN5GQdlW9+E0nLr10eNNmfPVLH4CnMs7EUreUMmrRFutEIsaSX1KndkDjXvJzy12jkVtKxC1jQsFZo1oagsitU9ubZTNmUKsZ8GrNQ1qjKvkDVhczQYuhIBjC6NA0Utkc5vR3I+ClKpEc+YkRkjGDmMYpatp6uZ9SuxdCnbDrdG9NKSESUul2m3FNzmmhyN+6GEdSep1iAa+vXmdsqhrhunqvqPLJWlvDyWfgrjXjWVM7y3vRcmWamlwTVHFXrcQIlrFpPk9lrVZ4fArtbVQ7FQi8v2QqZwqKRF8vCskpfi5Dk5976AGgomk3xjExMsys6/DGelDrXIJnBrO46IO/xKc+8268+d++iFSqVIi1tx3CbJ7Vfcx27F0kJCrZ6c+99IhFH22P+fHON52LRe00kuo0xmkccu3a4u0IM25zM2ZULGeqAg3JlCwythRRcNb1PSECaL9WZ6LEiICqrMnm6qbbVpVknZhMQjNSh2NRbB/chkceX43x6TI2bRvEnL4OdHfFcMrxh6G3O4pybpI2m9a4XuamihOdXufk+UgWq72S5NhtueyGk4QxzQ8ioVRT6uc37YlmeWqNUVSZwvtwufSdmbiD+fAzf6EGewml4kzN3m1EiKdQw78InaVq1qmq/oCW2dbyAjzeQb+UP9b0OS66qqlkAdG2DjgiYQxtWou+gQS0Em8lnzaL8OQn04yPa3zGUZJwLjYUwvjY1y7HAUefii9feiXj7TCqXv9nvF7PJ3kBewX2OhIK00PbfnbwgnmvPf+M/fDyk5ZiUXeIbuM0Cum0mV8mEvCjq4OKKLVSzV6TcJax0yj5yaqEqZO42m8do/Y+GbmMX6vkql+pPzGA4W3j8Prb0D6wEGtXrcalP/ghnliVB20VXQNzMDI6QZFm3Ei7P+u0lXjD684l+dTXdQcimgKDhDB9BkzSCSziQP1WjRLSmTUE3EVCs16NLtapWlu5tXJbGa+xUHE6VEGjLBzIlawpWlSpoyYbd5OAptJHNchSzmoZTo2kUJysGcddAXOtrjDPn9lBBtbNZMKRaB/Saf7eF4DLozU5+HMv1S89Rhd1CJlUCp5GiM+3HT53HDm046Pf/R22ZZz408NPUHGjyDlc20PhkBrmefK9A3slCQnX2icfvfslxxxx7GtftNDx0lMOQ1dblC5g2qzKpKWb5/S0mYVCDQH1iAzpZLncx61VWaM2P6lOi4RK/DmN3CJhAMl0HX0L92PMlMfPfnYNfn/Lw/Ax1DzssAMxf+k+SOZciMQSmBjagltuvt5MV//Rj7wKKxd1Mz6toVpMkRBWm6YlxHRZjXrxWkzlC4kg1VPDO0lolJiFgdrsNP6wUNDSaAkSIs7j/EhnSxgaHsXg4CCmktM45fST+TvVtFbNOEfNxtbaOnleZ8CH8uQo3WcSmbbidlN56SlUChV4Qjw3vQg+KB5ThjfYyUsK8zwuZEa2IhLXkt1pZPLTmGAcWCatwpF+FnRdGBstYe32Aj7yzRvxqxt+j0NPOlV6P+IOuU9yOBwatLvXYG8loeAsTo48uLyj97C3nL0cr7zgLHgcmqJwDG1RJ1ITWxEi33rm9jNmpPWIa16qgTsGFOqoVJw0QsZJJGy9TJeMkuhUlw/SM18WKQI0/E64g914etUmfPf7V2HjliS6utoRisfNMs8dvXNQaURQKJUM4dY+/TAevO8xvOzcZXj7hS+nKct1S3NLUphRDk0SGjVsklGQHIc9KCYZ4/o16oLOsGYERxDjU0VEI33I8BIfffQZ/Pa3v8fqTWUE+NMSyxdp/H77kvgf/gBd4gQalTSJP40g/dJKMWtaGMxRUl5dgFTXnNdqK4Wb1NG8pEUnyasVmFRZo4GZWo8tgMz2Z7BlaBs6587BVKaGbDmKeQsOx733P4cPfvl3uOmWP6B38b4Id7UPeaOeY5nxZp1lb8LeTEKD4TWPP3TmwYcc/uJTluFV578I8XAFuenNKGWH0NcZQohuVTSRMCV8PVMh+bzwhbv5Sx+y05MIB2mQUiFVetA8S3TdKnUXSRCj4nXjltsewPU33kVF5NckpvpqBiJx05lZU1f0zFmCXC6HZYsHsHn9k9iyYQNOPWkR3nXxq5GZHkQ0oC7lUkI6l1JC0zuH5zIVR9xBstQrRTiDbrqNVC+fG/mCXFIpVwjhjgXYvmka3//+z/HIYzuweOl89PbOg6an17i9TVuexdBQDkcc2o7PfvqDLFCmUc5PwO+qMUl9ZR8tb4CpSXyVAyLhVCGL9rZOOKsOlNIFKjkLJol0ZgKlwhQmUmMItscxmi0jzfi1d8GR+PUND+DrP7oP3/rW13HBhe9hvk4tWqyHmjSZ72WYNfOO/q2IdPX+an5vz7s//40rfcFADQcfdgBDnwLjJsZCdMvUpFDK5qgMfoZCWqWI8ZRqK2hsDsZC9WoRLmshP/5Ocqml2LRst1WDeMUVv8L6jbSxqNaAaKMNa329IGr8rdPlwtDgMF27LLZvXossDbaUq+OCl52AZUvmUZV0HYrTmgTUf7s13huQLLVqTtnCoYKAHzTdvNcbY/4xrFs7hK985ftYu24a5573Mhx+xEkIhjswMGcxOrv7sGD+IqpyD1avXo3uzjiWLJxnSJ1JTiKoNSl0DhN/ShJFfO2w7lcur9MbYtisTgEVHqH+ojXU05PIJ+l+VlQoeJGmKLpYIIW7l+Pex7fhG5ffjove+Q5c/OHP8jk6KvTaNUZQxdReCatY27uRPf2iiw+5+/47M1dc8xg+99VLqR7zEYgPYIxxjp9xTibfQDqvmgiP6V1TLVHFShlDVs2QXaf7V65oTUQZv0buB1AqFbFjcBsefLyMZcvijIVEPLqVPH5kZAd/SxeXJO/rClF9KRxTSbrAVXz5CxfjxGOORDGTQZl5yPl7HhSjSpnESo3gqNPQvWSE2wHNUVotqzeNm9ed4LUG8NGPXYZkpoxERzvGp7MYnUgyTWPdpi0YGZvCdDKHro45Zsmx315zPQllNeBHIhEWOlalzwuT8YbNddBD18h/haO8HLmuKjiSJGFS60jUnchWfMir+11wAH98YCP+7fPX4qJ/eQ8+/LmvoNygN+5qvJjZ0Fnee2GT0ML6JUedfNA1t/6qfOufJvHxz34bVXRgLmMXOBjXeTtNmDO6bYgx1gRcPlpcVLV/VbgZODp96gYmiaAyqptLXVNhaD29hukBp7YyzeBWzKdQKed4TIk7KQ+1NMaHN9Bd3IGD92vDlZd/CP3dYRqzKknkgjIPxYKqlDFktHrLmMoX0+OFKqjKE71FqnCpqh4xTiptiOrowLPPbcLgNNU+1g5/IIjHnngct95xM9Y89xSe2bAKN99+E+PER3HzTbegVq5hYqKCrEY60M0MJRj7mh4uhG6tCXMVYhzvVQ0x1UweESq7RtNrrObk9BjqVGRnKIqpiguZehTtA4fg7oe24POX3IqL3/M2vPHi99EzD9acrtpbHU7HPSbjvRg2CXdh4+EveuWyP9x7be3OB3P4/o9+i2IlSpeuGx5vF0nYwORUBpmMlhQbQS0zTAWiEqnniVcN1VobQv1N8ygUs/D53XT5unDkUU5s3JQ3IwuiUZLVW0NXZwTZzBSGh1MgJ/GK81bi3e94LUK+CmOmbgw1XdPYImu2N6sGVurH85nPzeQgATVNPEmq+U8bdQe0UrGZEp/x2RNPrsKSuaDiTaLIeHH+ornMrYTB0S28tyT3Sc0rIM957U5QeFlYZOAL+pGcGFZ3Gp7DUjyhpYCtgkCFQ0DrOhaKKE2OIZmcwqRUsMT7Jel9VNhY/z64+uYH8Y1Lb8P7/+3D+MC/fR5t3XPoxlcvdrtdVzaz3qux11fM/CUaB6eeeehPB+5zVOg1Jy/Dy844Hv0dfrpZ08hlhuByF+h6phgPFZBgjBfxd1C5/PCShFrARWtFaF1EpydMY25HuRrEz37+Ozy3YRjDI0nkaOjdfR1ob2/HQG8bjjhgPg4+YAXjwoxFAK8H3rYIKqM8F5XOQYMXEQ1k/NYnQwj5gHJXq/UayV9lmBoxqVTyoFwP4oab/oQfX/kQVh4wF1OpPCZTWQToFldYILi8bnTG25EayqMtFOK9bcP27VX8+LLXYtGiTqr+enS1kWAktjoGqAueOa+zZlS4zlDOVXex8OlD5rmNdHlH+NmJIq+1or63ft47C7C1Wwr418/+Cu9573vwrg9/isSM12qO2ltdLtcVJkMbNgn/YzQOXnX9NQ+c99JXeM85fCHe+OozMafXj6Htq8zaFPE4kMtpVaUSyeMjCYNItMfR1tWhIAn1fAFabt7p1LrsMXginRjeMkblDDI2TFBRpxCigmh9QFSTpm1SfVZUr+Lh78vFHJwklqbW92oOCaNGz1ekXX871VYOrYqmbnFadjtPosc6F+CJx5/D+z54BTr7+HdbHxp0L8enp0zFajSu+WKS6In0YdvGTXSDNc9pGZ/55BuRCDeYPCikpxEwKzvJYbKcJhMLqjCgKqtlJDeSQjpFRSf5nCHebyRuOnkP0Q1+6rkJfPSrN+Pzn/ss3vSvH+OPUas4qx/kPX7DZGbDwCbhX0MDSxqDI08dc9CyQNRbwjvech6WLYzDVSX58oOIBTXlBehWOhHwayQ+aUEj1hLbbW1kqceDhhYP9QTNuoGaLU29bLScmRYgVROBupF5qR6kG+2a8R7fhWLKBlnV4Fb7POq1sxsBX4iGi+QxBLEGGkux1EivsY3qMPDO934aBRYIkbYo/KEExpIpkrSMYCTKS/Qgl06ZhWkY3JF0Ffzqik8jnxqip5vhPbqpxLIPanE6zULFDWd7l3xupIaH6YWm0XDnkClQTbvnYnSqwgJnAOlKBJf++Ho88OQgbv/jYxhYvJ/83VrVX/t/bo/rcmb4129oL4RVvNn4Sziw3jHQE7/loVWbOhfv1/jCt36FHVMlFBwhDE7SnQt2sewP0NAbZnazXDZDZWBcRYsf2zGCwugUHBoKJXeS8ZbXr5nTKjTgCdRL4/A60ghQVZ21AtxUPDXIu6kuXlXmeBzwUxF9fo88ziasV2WNE7S25m8pkEk1k4f6maq3i+n5ggI++L7XI0DvcP3T6rs5BneNV00yBZ0+FFIZzJ/XiySVeXykgsULGQPzl9EQCUqXUkvGqdtecWIE7mgQzs4YCts3Y3LzZsZ0NZKviGyliva587E9mYc7PoBkJYyPf+H7WLM5jct/dh165i0HQp4yIlhMAl7GS7YJ+ALs9e2E/wVq/kT80pece+7Z42Obez/+hV/gwP37cMRRRyKZzTPGG0ZvZ4TqRzWkpauiIp8rIKuRBDWHGbWvzsouaabcOk1P4XMwXqxRGUhIEkYjCxx19UGVsqomtLkl07TVdBYimKKyv9g6SnC68nA5s3A1WDCYLmciIAndECFr6FuyFMFqHjs2b8fYYBUJEj/s0ej9CRSSBaxeOwlmgVOPXYS3veE1SMRDZh2NeonxqdhbZ56KDVnQDG1ah0w+DZdfK3ZUUXI6UHSEUfEwxu1dgd/f+Tje84nrse/B++L6W/6Iefsfhny1st0b8WoJsyHzRG38BWx39L+HNsZuT331Q28f+M43rsYZp7bhxScfhZOP3Bfbn/4Twm4RxUW3U8QLUcX8ZtY2DRY27W1uB5WQ6hPxw6k4UL3bNNkRVaRRaDXAN+EgYeXnWl6gAkvt3Q27/W1qS9Vpm6Q2yqgfqLGO+ZlubR6k02VEFyzHttXrccvtd5NEas9kYeDyY+78hTjhuON4bAVBPxUw4UdyaCOvn46sm4WBh24xyahmi5GxYbh8fsTbOjFG5dSCM51zlqEa6MPGwTR+fvV1uP/hHD740bfj4k98CShSn93Bte6A+1ReyCCTjb8Cm4T/fcQoEbc/8acbDj/1lNdj6VzgnReegfOOW4KxjatoqHkkYgm6mR66d9NUkDricU20VCfXyqho+TOSLxT2IxT1w+cjGdXNRYNkrbp/Jr4LJr0TuZuqC1WvmhZMhUzTDbVguaa7QE/vha9TC2uU5AaLqPyb8ah6+6jjgZl4tc7PdWpuIUsXky6lVJqErKUnMDk5isnpCR7uQ3f/AEq8gA2bd5j19vvnLUDZ3YYH1qTwnk/+DPvu240fXfELLDjwCNSLdWRreCIai5zMM+6VXdH+J7BJ+D+Dq1ErfwyFsY9+85L/z/PFj38b5x/hxKtfcjL222cZhod2mCWre7rbzfR9I0PbEY9SCc0A4LrpUaNeM+qRorltfL4AIuEEv2sSSyRrQWSju9daqVfHWLWiTZg/uE9Diwi5rjqHqGuxzfpbNZeaWlDthwiQcCR+KZO1lh3TWKpp+qKaaY5u8fTEmBHi6SRdVJcDgUgUFWZV5bm0JqImAY509PIp+PHnBx/BNb//M+5e3cC3vv9tvOo1rwOC4frU1PTGWFvbh10u1428gGbbio3/DDYJ/zYcnZ4c/c2zj97b9/7XvRwdDPcOO3Q5TjvtWAz0RTE1tgmlwjja4wHGh5MIeBkzurUUGaM0qk+1RKWra5IlJ2Kd7WZwraafEDmVnB4mksXBfVXNi2pOuUsBKVwWSR11Cu4u8kkVFStag3/1cvm3JpGiIjcmp5DNF0iiLpS4HRsdRzTkRTk9bFYYlh2Ua3XyNGRWgvIGY3Q/oxiZyiKU6CX/2uAMJLB1ZBq//t1NWPPsVgws3RcXve/TOPqks+AN+EbpBGia+jvNyW38t2GT8G9HAvXG11Euv+Gab37V+e1vfh6FXAEvP/8QvPScY+F1ZbFlwxPopOuJcgnOqsbauxBwhiinXrp+TrqpVcZNVcZejBm9Gqnuhd/vN+6fpjZ0uF2oalDxbtj1tkRKurpGbFSJwz0k385t021Np7NIaRmzYJiupg+j41NUQU2yGyXBswh60qhz6wuEmIsLuUKNYhmi6kUxmS4hFO8n+doxNFnE1dfdjt/fuQ4r9p2Pf/23j+OUC17NEDRQr9Tq3/Z4nB/h6YrmpDb+R7BJ+L/HXGTqt08Obl52+WVfx48v+x76e4A3vPJELF/YhY6oG5X0JDzVBtyacazqMMN+KjR2TTtYcZfMOvd6DxrSpAmgtMpSiO6qJhuW0qk9z01V1GzhhULBbDVzmVOztPF4OrpG9Uxbo0Z2NKrckqL8rfm9mVPVzTBQbYpufg8S3k+lZSGgJpOGpuag8ro103aI2wipTUVs+LFu6zhuuPWPuPeRUSxauRDv+JcP4SWvegNJGkAun386FA0q7huzHoWNvwU2Cf9+6KGF3zq6cdX+H3zfRY7bfv8ITjzchwvOPhH7LZpHAhZRSSXhLJURpyp1t3dgfGKIbp8DyZTV+8bvpxJSDaV+1WrZTMUvspX521q5YuI1EdLLpNEcFb67bEV1LG74SDD1/1RziCb1rVRLJh/VzhZLFSpciRJJ4rpIQuZboTLneC1tXZ28bIaEVE63L8xYNYFRuqC33nk/br17PTaPAy968f54yzvej+NPPhP0TZX97R6vW67ntLlzG/8r2CT8+4KeYOMVDjT+bctTD+936de/4LjqZzdibhR47flH4sgDlqO/I0q3tIyxwS3obAvxB0VUi5osiYqlaQVJNq3bp7guGPBDUyD6fB74vFQyyl1VIyWodiKc0xNEoRZAteZCra6O2FXTc0cKq+RwOzA2PgJfKIhgOGQqWQrFMl1Y/p5k94S6UHR0o07lm5zO4M/3P4Qbf/8otk0Chx7SjdPOOQ+vf8vbEdQMdJFErV5zP+Bw+j7CAuC+5v3a+DvAJuE/BgrIXkGuXfbYXbeE773jBlz+ne9DixGdctwcHH/0ATj0oJVIjw1yXxUBV90ooSZCapBI0WDA9JipU8kqpZxZg8LnIdHohhZLWoOiTBdTyhVBukAX1KWhVCQpGaj3KaKWtdZDvYauvj6kMzleCiNHHhcMReD2BzDFODFVduP2+7bgwcefw+atKcyl+3zyKafhmBNOxoGHHI7QwADqhVKt6g7+3OMLfpbk28RsrFofG3832CT8xyJCk/1MPZN7q9NZDD5w542OSy/5Au7643rTXn/xhfuhPx7FvL4u9HZ1UwnJUgZzpB8JWEa5kEVA5CvnUS4WyOwa/3bTHXUxRtQApxryVbqq+o/U0NypGtDrdGmuF8aBWiEJPri8EQSjndi8fRSPPLkGjz6xGo89nsI0X/0xxx+AY08+Hae+6HQsXLQEnniiQf+2ynJkW61R/5HL4/k2LzVn7sbGPwQ2Cf858Nbr9TMdtcq/OFyVwzIjm0OPPPwnxy+u/BG2P/cspsdKfBHAyuWdOOqwQ7F00Xy0xSNUQAfqxTyCXheV0IkqyZhPp1HIp6lH5Iq7oeUD4XA1oJWm1KyhjtvlugslVf7UPRieyOLPDz6Fp57ZhPWbK+idF8eZZ5+Hw488HgcdcSQS/QPqUtdgkFmuV2pPObzer1Lxruc1Szxt/BNgk/CfD60nvaTRqJ/kcNTePLJj04rRwUHXk48/hrvuuBV3/+Euuo9AzA/st6ILK5csQHs0hJ6ONrTHwoiG/KYDQEdbHLFYBDu2bzHtjJphTWtDbNm2A2ueWY+nn9uEbcNVDCaB3l43Xvumt+OI407BygMONbO85cu1asDruoUO7M20gHXU0Kd5XbN2DcD/y7BJOLNQs57WLetnejHl7d3VYmH+yPAO5+onHsXTa57C0JaNeHbNKqx5cgOKFYoWDwy1ZhXkZ/29u2QN9Dqw/8EHY78DD8HA/CU4/00XoZQpwBdvA8O7hssd3EJv9u088QM8fK+e2+X/CmwS/t9FL2n2b6hVzxjevqXT4/H4a5WyO51OO4rFvGN6akrjER1avq21+EosFmvE4nFEo/F6MBzJweufAFy3wOG8hPltZqqZnG38n4JNwj0DUkyJnupz6KgiyvfWx+18xm+aWlu1otRGTPDvYW43MqkNz365ewBsEtqwMcOwOhjasGFjxmCT0IaNGYZNQhs2Zhg2CW3YmGHYJLRhY4Zhk9CGjRmGTUIbNmYYNglt2Jhh2CS0YWOGYZPQho0Zhk1CGzZmGDYJbdiYYdgktGFjhmGT0IaNGYZNQhs2Zhg2CW3YmGHYJLRhY4Zhk9CGjRmGTUIbNmYYNglt2Jhh2CS0YWOGYZPQho0Zhk1CGzZmGDYJbdiYYdgktGFjhmGT0IaNGYZNQhs2Zhg2CW3YmGHYJLRhY4Zhk9CGjRmGTUIbNmYYNglt2Jhh2CS0YWOGYZPQho0Zhk1CGzZmGDYJbdiYYdgktGFjhmGT0IaNGYZNQhs2Zhg2CW3YmGHYJLRhY4Zhk9CGjRmGTUIbNmYYNglt2Jhh2CS0YWOGYZPQho0ZBfD/A1vF0c2855QlAAAAAElFTkSuQmCC;" vertex="1" parent="7">
                    <mxGeometry x="267.5" y="140" width="225" height="225" as="geometry"/>
                </mxCell>
                <mxCell id="10" value="Score: 26" style="text;html=1;align=center;verticalAlign=middle;resizable=0;points=[];autosize=1;strokeColor=none;fillColor=none;fontSize=46;" vertex="1" parent="7">
                    <mxGeometry x="270" y="400" width="220" height="70" as="geometry"/>
                </mxCell>
            </root>
        </mxGraphModel>
    </diagram>
</mxfile>